<?xml version="1.0" encoding="us-ascii" standalone="no"?><svg xmlns="http://www.w3.org/2000/svg" xmlns:xlink="http://www.w3.org/1999/xlink" contentStyleType="text/css" height="790px" preserveAspectRatio="none" style="width:1104px;height:790px;background:#FFFFFF;" version="1.1" viewBox="0 0 1104 790" width="1104px" zoomAndPan="magnify"><defs/><g><rect fill="#FFFFFF" height="578.6816" style="stroke:#181818;stroke-width:1.0;" width="10" x="273.5" y="112.7988"/><rect fill="#FFFFFF" height="528.0605" style="stroke:#181818;stroke-width:1.0;" width="10" x="593.5" y="142.1094"/><rect fill="#FFFFFF" height="30" style="stroke:#181818;stroke-width:1.0;" width="10" x="806.5" y="171.4199"/><rect fill="#FFFFFF" height="30" style="stroke:#181818;stroke-width:1.0;" width="10" x="806.5" y="314.3516"/><rect fill="#FFFFFF" height="30" style="stroke:#181818;stroke-width:1.0;" width="10" x="806.5" y="536.5488"/><rect fill="#FFFFFF" height="30" style="stroke:#181818;stroke-width:1.0;" width="10" x="923.5" y="373.6621"/><rect fill="#FFFFFF" height="30" style="stroke:#181818;stroke-width:1.0;" width="10" x="923.5" y="595.8594"/><rect fill="#FFFFFF" height="30" style="stroke:#181818;stroke-width:1.0;" width="10" x="1028" y="255.041"/><rect fill="#FFFFFF" height="30" style="stroke:#181818;stroke-width:1.0;" width="10" x="1028" y="477.2383"/><rect fill="none" height="446.75" style="stroke:#000000;stroke-width:1.5;" width="894.5" x="203" y="216.4199"/><line style="stroke:#181818;stroke-width:0.5;stroke-dasharray:5.0,5.0;" x1="23" x2="23" y1="81.4883" y2="709.4805"/><line style="stroke:#181818;stroke-width:0.5;stroke-dasharray:5.0,5.0;" x1="278" x2="278" y1="81.4883" y2="709.4805"/><line style="stroke:#181818;stroke-width:0.5;stroke-dasharray:5.0,5.0;" x1="598" x2="598" y1="81.4883" y2="709.4805"/><line style="stroke:#181818;stroke-width:0.5;stroke-dasharray:5.0,5.0;" x1="811.5" x2="811.5" y1="81.4883" y2="709.4805"/><line style="stroke:#181818;stroke-width:0.5;stroke-dasharray:5.0,5.0;" x1="928.5" x2="928.5" y1="81.4883" y2="709.4805"/><line style="stroke:#181818;stroke-width:0.5;stroke-dasharray:5.0,5.0;" x1="1032.5" x2="1032.5" y1="81.4883" y2="709.4805"/><text fill="#000000" font-family="sans-serif" font-size="14" lengthAdjust="spacing" textLength="31" x="5" y="78.5352">User</text><ellipse cx="23.5" cy="13.5" fill="#E2E2F0" rx="8" ry="8" style="stroke:#181818;stroke-width:0.5;"/><path d="M23.5,21.5 L23.5,48.5 M10.5,29.5 L36.5,29.5 M23.5,48.5 L10.5,63.5 M23.5,48.5 L36.5,63.5 " fill="none" style="stroke:#181818;stroke-width:0.5;"/><text fill="#000000" font-family="sans-serif" font-size="14" lengthAdjust="spacing" textLength="31" x="5" y="722.0156">User</text><ellipse cx="23.5" cy="733.4688" fill="#E2E2F0" rx="8" ry="8" style="stroke:#181818;stroke-width:0.5;"/><path d="M23.5,741.4688 L23.5,768.4688 M10.5,749.4688 L36.5,749.4688 M23.5,768.4688 L10.5,783.4688 M23.5,768.4688 L36.5,783.4688 " fill="none" style="stroke:#181818;stroke-width:0.5;"/><rect fill="#E2E2F0" height="30.4883" rx="2.5" ry="2.5" style="stroke:#181818;stroke-width:0.5;" width="131" x="213" y="50"/><text fill="#000000" font-family="sans-serif" font-size="14" lengthAdjust="spacing" textLength="117" x="220" y="70.5352">ReviewController</text><rect fill="#E2E2F0" height="30.4883" rx="2.5" ry="2.5" style="stroke:#181818;stroke-width:0.5;" width="131" x="213" y="708.4805"/><text fill="#000000" font-family="sans-serif" font-size="14" lengthAdjust="spacing" textLength="117" x="220" y="729.0156">ReviewController</text><rect fill="#E2E2F0" height="30.4883" rx="2.5" ry="2.5" style="stroke:#181818;stroke-width:0.5;" width="109" x="544" y="50"/><text fill="#000000" font-family="sans-serif" font-size="14" lengthAdjust="spacing" textLength="95" x="551" y="70.5352">ReviewService</text><rect fill="#E2E2F0" height="30.4883" rx="2.5" ry="2.5" style="stroke:#181818;stroke-width:0.5;" width="109" x="544" y="708.4805"/><text fill="#000000" font-family="sans-serif" font-size="14" lengthAdjust="spacing" textLength="95" x="551" y="729.0156">ReviewService</text><rect fill="#E2E2F0" height="30.4883" rx="2.5" ry="2.5" style="stroke:#181818;stroke-width:0.5;" width="134" x="744.5" y="50"/><text fill="#000000" font-family="sans-serif" font-size="14" lengthAdjust="spacing" textLength="120" x="751.5" y="70.5352">ReviewRepository</text><rect fill="#E2E2F0" height="30.4883" rx="2.5" ry="2.5" style="stroke:#181818;stroke-width:0.5;" width="134" x="744.5" y="708.4805"/><text fill="#000000" font-family="sans-serif" font-size="14" lengthAdjust="spacing" textLength="120" x="751.5" y="729.0156">ReviewRepository</text><text fill="#000000" font-family="sans-serif" font-size="14" lengthAdjust="spacing" textLength="74" x="888.5" y="78.5352">BaseDados</text><path d="M910.5,29 C910.5,19 928.5,19 928.5,19 C928.5,19 946.5,19 946.5,29 L946.5,55 C946.5,65 928.5,65 928.5,65 C928.5,65 910.5,65 910.5,55 L910.5,29 " fill="#E2E2F0" style="stroke:#181818;stroke-width:1.5;"/><path d="M910.5,29 C910.5,39 928.5,39 928.5,39 C928.5,39 946.5,39 946.5,29 " fill="none" style="stroke:#181818;stroke-width:1.5;"/><text fill="#000000" font-family="sans-serif" font-size="14" lengthAdjust="spacing" textLength="74" x="888.5" y="722.0156">BaseDados</text><path d="M910.5,734.9688 C910.5,724.9688 928.5,724.9688 928.5,724.9688 C928.5,724.9688 946.5,724.9688 946.5,734.9688 L946.5,760.9688 C946.5,770.9688 928.5,770.9688 928.5,770.9688 C928.5,770.9688 910.5,770.9688 910.5,760.9688 L910.5,734.9688 " fill="#E2E2F0" style="stroke:#181818;stroke-width:1.5;"/><path d="M910.5,734.9688 C910.5,744.9688 928.5,744.9688 928.5,744.9688 C928.5,744.9688 946.5,744.9688 946.5,734.9688 " fill="none" style="stroke:#181818;stroke-width:1.5;"/><rect fill="#E2E2F0" height="30.4883" rx="2.5" ry="2.5" style="stroke:#181818;stroke-width:0.5;" width="109" x="978.5" y="50"/><text fill="#000000" font-family="sans-serif" font-size="14" lengthAdjust="spacing" textLength="95" x="985.5" y="70.5352">review:Review</text><rect fill="#E2E2F0" height="30.4883" rx="2.5" ry="2.5" style="stroke:#181818;stroke-width:0.5;" width="109" x="978.5" y="708.4805"/><text fill="#000000" font-family="sans-serif" font-size="14" lengthAdjust="spacing" textLength="95" x="985.5" y="729.0156">review:Review</text><rect fill="#FFFFFF" height="578.6816" style="stroke:#181818;stroke-width:1.0;" width="10" x="273.5" y="112.7988"/><rect fill="#FFFFFF" height="528.0605" style="stroke:#181818;stroke-width:1.0;" width="10" x="593.5" y="142.1094"/><rect fill="#FFFFFF" height="30" style="stroke:#181818;stroke-width:1.0;" width="10" x="806.5" y="171.4199"/><rect fill="#FFFFFF" height="30" style="stroke:#181818;stroke-width:1.0;" width="10" x="806.5" y="314.3516"/><rect fill="#FFFFFF" height="30" style="stroke:#181818;stroke-width:1.0;" width="10" x="806.5" y="536.5488"/><rect fill="#FFFFFF" height="30" style="stroke:#181818;stroke-width:1.0;" width="10" x="923.5" y="373.6621"/><rect fill="#FFFFFF" height="30" style="stroke:#181818;stroke-width:1.0;" width="10" x="923.5" y="595.8594"/><rect fill="#FFFFFF" height="30" style="stroke:#181818;stroke-width:1.0;" width="10" x="1028" y="255.041"/><rect fill="#FFFFFF" height="30" style="stroke:#181818;stroke-width:1.0;" width="10" x="1028" y="477.2383"/><polygon fill="#181818" points="261.5,108.7988,271.5,112.7988,261.5,116.7988,265.5,112.7988" style="stroke:#181818;stroke-width:1.0;"/><line style="stroke:#181818;stroke-width:1.0;" x1="23.5" x2="267.5" y1="112.7988" y2="112.7988"/><text fill="#000000" font-family="sans-serif" font-size="13" font-weight="bold" lengthAdjust="spacing" textLength="9" x="30.5" y="108.0566">1</text><text fill="#000000" font-family="sans-serif" font-size="13" lengthAdjust="spacing" textLength="191" x="43.5" y="108.0566">POST /products/{sku}/reviews</text><polygon fill="#181818" points="581.5,138.1094,591.5,142.1094,581.5,146.1094,585.5,142.1094" style="stroke:#181818;stroke-width:1.0;"/><line style="stroke:#181818;stroke-width:1.0;" x1="283.5" x2="587.5" y1="142.1094" y2="142.1094"/><text fill="#000000" font-family="sans-serif" font-size="13" font-weight="bold" lengthAdjust="spacing" textLength="9" x="290.5" y="137.3672">2</text><text fill="#000000" font-family="sans-serif" font-size="13" lengthAdjust="spacing" textLength="278" x="303.5" y="137.3672">addVoteToReview(reviewID, voteReviewDTO)</text><polygon fill="#181818" points="794.5,167.4199,804.5,171.4199,794.5,175.4199,798.5,171.4199" style="stroke:#181818;stroke-width:1.0;"/><line style="stroke:#181818;stroke-width:1.0;" x1="603.5" x2="800.5" y1="171.4199" y2="171.4199"/><text fill="#000000" font-family="sans-serif" font-size="13" font-weight="bold" lengthAdjust="spacing" textLength="9" x="610.5" y="166.6777">3</text><text fill="#000000" font-family="sans-serif" font-size="13" lengthAdjust="spacing" textLength="171" x="623.5" y="166.6777">review = findById(reviewID)</text><path d="M203,216.4199 L265,216.4199 L265,223.7305 L255,233.7305 L203,233.7305 L203,216.4199 " fill="#EEEEEE" style="stroke:#000000;stroke-width:1.5;"/><rect fill="none" height="446.75" style="stroke:#000000;stroke-width:1.5;" width="894.5" x="203" y="216.4199"/><text fill="#000000" font-family="sans-serif" font-size="13" font-weight="bold" lengthAdjust="spacing" textLength="17" x="218" y="229.9883">alt</text><text fill="#000000" font-family="sans-serif" font-size="11" font-weight="bold" lengthAdjust="spacing" textLength="309" x="280" y="229.0547">[voteReviewDTO.getVote().equalsIgnoreCase("upVote")]</text><polygon fill="#181818" points="1016,251.041,1026,255.041,1016,259.041,1020,255.041" style="stroke:#181818;stroke-width:1.0;"/><line style="stroke:#181818;stroke-width:1.0;" x1="603.5" x2="1022" y1="255.041" y2="255.041"/><text fill="#000000" font-family="sans-serif" font-size="13" font-weight="bold" lengthAdjust="spacing" textLength="9" x="610.5" y="250.2988">4</text><text fill="#000000" font-family="sans-serif" font-size="13" lengthAdjust="spacing" textLength="68" x="623.5" y="250.2988">addUpVote</text><polygon fill="#181818" points="794.5,310.3516,804.5,314.3516,794.5,318.3516,798.5,314.3516" style="stroke:#181818;stroke-width:1.0;"/><line style="stroke:#181818;stroke-width:1.0;" x1="603.5" x2="800.5" y1="314.3516" y2="314.3516"/><text fill="#000000" font-family="sans-serif" font-size="13" font-weight="bold" lengthAdjust="spacing" textLength="9" x="610.5" y="309.6094">5</text><text fill="#000000" font-family="sans-serif" font-size="13" lengthAdjust="spacing" textLength="76" x="623.5" y="309.6094">save(review)</text><polygon fill="#181818" points="911.5,369.6621,921.5,373.6621,911.5,377.6621,915.5,373.6621" style="stroke:#181818;stroke-width:1.0;"/><line style="stroke:#181818;stroke-width:1.0;" x1="603.5" x2="917.5" y1="373.6621" y2="373.6621"/><text fill="#000000" font-family="sans-serif" font-size="13" font-weight="bold" lengthAdjust="spacing" textLength="9" x="610.5" y="368.9199">6</text><text fill="#000000" font-family="sans-serif" font-size="13" lengthAdjust="spacing" textLength="76" x="623.5" y="368.9199">save(review)</text><polygon fill="#181818" points="294.5,428.9727,284.5,432.9727,294.5,436.9727,290.5,432.9727" style="stroke:#181818;stroke-width:1.0;"/><line style="stroke:#181818;stroke-width:1.0;stroke-dasharray:2.0,2.0;" x1="288.5" x2="592.5" y1="432.9727" y2="432.9727"/><text fill="#000000" font-family="sans-serif" font-size="13" font-weight="bold" lengthAdjust="spacing" textLength="9" x="300.5" y="428.2305">7</text><text fill="#000000" font-family="sans-serif" font-size="13" lengthAdjust="spacing" textLength="4" x="313.5" y="428.2305">&#160;</text><line style="stroke:#000000;stroke-width:1.0;stroke-dasharray:2.0,2.0;" x1="203" x2="1097.5" y1="441.9727" y2="441.9727"/><text fill="#000000" font-family="sans-serif" font-size="11" font-weight="bold" lengthAdjust="spacing" textLength="325" x="208" y="452.6074">[voteReviewDTO.getVote().equalsIgnoreCase("downVote")]</text><polygon fill="#181818" points="1016,473.2383,1026,477.2383,1016,481.2383,1020,477.2383" style="stroke:#181818;stroke-width:1.0;"/><line style="stroke:#181818;stroke-width:1.0;" x1="603.5" x2="1022" y1="477.2383" y2="477.2383"/><text fill="#000000" font-family="sans-serif" font-size="13" font-weight="bold" lengthAdjust="spacing" textLength="9" x="610.5" y="472.4961">8</text><text fill="#000000" font-family="sans-serif" font-size="13" lengthAdjust="spacing" textLength="87" x="623.5" y="472.4961">addDownVote</text><polygon fill="#181818" points="794.5,532.5488,804.5,536.5488,794.5,540.5488,798.5,536.5488" style="stroke:#181818;stroke-width:1.0;"/><line style="stroke:#181818;stroke-width:1.0;" x1="603.5" x2="800.5" y1="536.5488" y2="536.5488"/><text fill="#000000" font-family="sans-serif" font-size="13" font-weight="bold" lengthAdjust="spacing" textLength="9" x="610.5" y="531.8066">9</text><text fill="#000000" font-family="sans-serif" font-size="13" lengthAdjust="spacing" textLength="76" x="623.5" y="531.8066">save(review)</text><polygon fill="#181818" points="911.5,591.8594,921.5,595.8594,911.5,599.8594,915.5,595.8594" style="stroke:#181818;stroke-width:1.0;"/><line style="stroke:#181818;stroke-width:1.0;" x1="603.5" x2="917.5" y1="595.8594" y2="595.8594"/><text fill="#000000" font-family="sans-serif" font-size="13" font-weight="bold" lengthAdjust="spacing" textLength="18" x="610.5" y="591.1172">10</text><text fill="#000000" font-family="sans-serif" font-size="13" lengthAdjust="spacing" textLength="76" x="632.5" y="591.1172">save(review)</text><polygon fill="#181818" points="294.5,651.1699,284.5,655.1699,294.5,659.1699,290.5,655.1699" style="stroke:#181818;stroke-width:1.0;"/><line style="stroke:#181818;stroke-width:1.0;stroke-dasharray:2.0,2.0;" x1="288.5" x2="592.5" y1="655.1699" y2="655.1699"/><text fill="#000000" font-family="sans-serif" font-size="13" font-weight="bold" lengthAdjust="spacing" textLength="18" x="300.5" y="650.4277">11</text><text fill="#000000" font-family="sans-serif" font-size="13" lengthAdjust="spacing" textLength="4" x="322.5" y="650.4277">&#160;</text><polygon fill="#181818" points="34.5,687.4805,24.5,691.4805,34.5,695.4805,30.5,691.4805" style="stroke:#181818;stroke-width:1.0;"/><line style="stroke:#181818;stroke-width:1.0;stroke-dasharray:2.0,2.0;" x1="28.5" x2="277.5" y1="691.4805" y2="691.4805"/><text fill="#000000" font-family="sans-serif" font-size="13" font-weight="bold" lengthAdjust="spacing" textLength="18" x="40.5" y="686.7383">12</text><text fill="#000000" font-family="sans-serif" font-size="13" lengthAdjust="spacing" textLength="204" x="62.5" y="686.7383">Informa do sucesso da opera&#231;&#227;o</text><!--SRC=[tLJDZjf03BxFKrYSY5IWGBLg8xMg8BI2Wa0XiEU1CMZKC9FEJrQewjFqq0VP5widOLb0gshFZPH8iJz__ZnZctkdbJziq336jquRM5aqm2sibYahk75oAmkk7AHOIdmOQkMCplCQCypIwGkW9PfIRZ4Wbkdw1K2AXRQIiXq39XqjvanmnpVS8Wpeat2XRN0b0yP82BG-LRbYMCoN6NGAeuNVEjlvQR_xNnrJaTfGW2ovmrfN-8H0aX035sAj7MQw5j2iGyR96oZ9N1kJR1uzSmJbz191q1T37G4VOIUL61p7uinn4LINWjV_F7VNMTfxT45DCshZ3yzpEzuhRN18bJSRlWYkHiI07X8GIcZKgUAQeL6Liwfm5UgSxWPNEI_KlEG-PQXhjBp4KrdHDNDLo0tTsNRYI0R_Og2hl8a_MQhefmjcc5CFlFwqX7vGhpklv8Jy_qvCYSkM2trRjpuXmkp4C5OxRGuSX0RhjsYj1i515sZuuv_7t_eol1eT-4oa_f0pjiXfQbUpAPHehDGAkktUsrw_tUqsxr704Wlezg7x8UxTnVq-t8zeF0CWOislYobOxGqj0Y6jCtBZ7J54RC9B3gbNJXumXdc1Qf9yUpB0I9NIQ7L0vTXaFNi6tBrh3QI3i5ne-wndBC4TzpHR8xNLGgfz3AliI-izctArztnFtAZOK1ElETBcoFu2]--></g></svg>