<?xml version="1.0" encoding="us-ascii" standalone="no"?><svg xmlns="http://www.w3.org/2000/svg" xmlns:xlink="http://www.w3.org/1999/xlink" contentStyleType="text/css" height="359px" preserveAspectRatio="none" style="width:665px;height:359px;background:#FFFFFF;" version="1.1" viewBox="0 0 665 359" width="665px" zoomAndPan="magnify"><defs/><g><rect fill="#FFFFFF" height="147.2422" style="stroke:#181818;stroke-width:1.0;" width="10" x="217.5" y="112.7988"/><rect fill="#FFFFFF" height="88.6211" style="stroke:#181818;stroke-width:1.0;" width="10" x="354.5" y="142.1094"/><rect fill="#FFFFFF" height="59.3105" style="stroke:#181818;stroke-width:1.0;" width="10" x="492" y="171.4199"/><rect fill="#FFFFFF" height="30" style="stroke:#181818;stroke-width:1.0;" width="10" x="619" y="200.7305"/><line style="stroke:#181818;stroke-width:0.5;stroke-dasharray:5.0,5.0;" x1="23" x2="23" y1="81.4883" y2="278.041"/><line style="stroke:#181818;stroke-width:0.5;stroke-dasharray:5.0,5.0;" x1="222" x2="222" y1="81.4883" y2="278.041"/><line style="stroke:#181818;stroke-width:0.5;stroke-dasharray:5.0,5.0;" x1="359" x2="359" y1="81.4883" y2="278.041"/><line style="stroke:#181818;stroke-width:0.5;stroke-dasharray:5.0,5.0;" x1="497" x2="497" y1="81.4883" y2="278.041"/><line style="stroke:#181818;stroke-width:0.5;stroke-dasharray:5.0,5.0;" x1="624" x2="624" y1="81.4883" y2="278.041"/><text fill="#000000" font-family="sans-serif" font-size="14" lengthAdjust="spacing" textLength="31" x="5" y="78.5352">User</text><ellipse cx="23.5" cy="13.5" fill="#E2E2F0" rx="8" ry="8" style="stroke:#181818;stroke-width:0.5;"/><path d="M23.5,21.5 L23.5,48.5 M10.5,29.5 L36.5,29.5 M23.5,48.5 L10.5,63.5 M23.5,48.5 L36.5,63.5 " fill="none" style="stroke:#181818;stroke-width:0.5;"/><text fill="#000000" font-family="sans-serif" font-size="14" lengthAdjust="spacing" textLength="31" x="5" y="290.5762">User</text><ellipse cx="23.5" cy="302.0293" fill="#E2E2F0" rx="8" ry="8" style="stroke:#181818;stroke-width:0.5;"/><path d="M23.5,310.0293 L23.5,337.0293 M10.5,318.0293 L36.5,318.0293 M23.5,337.0293 L10.5,352.0293 M23.5,337.0293 L36.5,352.0293 " fill="none" style="stroke:#181818;stroke-width:0.5;"/><rect fill="#E2E2F0" height="30.4883" rx="2.5" ry="2.5" style="stroke:#181818;stroke-width:0.5;" width="137" x="154" y="50"/><text fill="#000000" font-family="sans-serif" font-size="14" lengthAdjust="spacing" textLength="123" x="161" y="70.5352">ProductController</text><rect fill="#E2E2F0" height="30.4883" rx="2.5" ry="2.5" style="stroke:#181818;stroke-width:0.5;" width="137" x="154" y="277.041"/><text fill="#000000" font-family="sans-serif" font-size="14" lengthAdjust="spacing" textLength="123" x="161" y="297.5762">ProductController</text><rect fill="#E2E2F0" height="30.4883" rx="2.5" ry="2.5" style="stroke:#181818;stroke-width:0.5;" width="115" x="302" y="50"/><text fill="#000000" font-family="sans-serif" font-size="14" lengthAdjust="spacing" textLength="101" x="309" y="70.5352">ProductService</text><rect fill="#E2E2F0" height="30.4883" rx="2.5" ry="2.5" style="stroke:#181818;stroke-width:0.5;" width="115" x="302" y="277.041"/><text fill="#000000" font-family="sans-serif" font-size="14" lengthAdjust="spacing" textLength="101" x="309" y="297.5762">ProductService</text><rect fill="#E2E2F0" height="30.4883" rx="2.5" ry="2.5" style="stroke:#181818;stroke-width:0.5;" width="140" x="427" y="50"/><text fill="#000000" font-family="sans-serif" font-size="14" lengthAdjust="spacing" textLength="126" x="434" y="70.5352">ProductRepository</text><rect fill="#E2E2F0" height="30.4883" rx="2.5" ry="2.5" style="stroke:#181818;stroke-width:0.5;" width="140" x="427" y="277.041"/><text fill="#000000" font-family="sans-serif" font-size="14" lengthAdjust="spacing" textLength="126" x="434" y="297.5762">ProductRepository</text><text fill="#000000" font-family="sans-serif" font-size="14" lengthAdjust="spacing" textLength="74" x="584" y="78.5352">BaseDados</text><path d="M606,29 C606,19 624,19 624,19 C624,19 642,19 642,29 L642,55 C642,65 624,65 624,65 C624,65 606,65 606,55 L606,29 " fill="#E2E2F0" style="stroke:#181818;stroke-width:1.5;"/><path d="M606,29 C606,39 624,39 624,39 C624,39 642,39 642,29 " fill="none" style="stroke:#181818;stroke-width:1.5;"/><text fill="#000000" font-family="sans-serif" font-size="14" lengthAdjust="spacing" textLength="74" x="584" y="290.5762">BaseDados</text><path d="M606,303.5293 C606,293.5293 624,293.5293 624,293.5293 C624,293.5293 642,293.5293 642,303.5293 L642,329.5293 C642,339.5293 624,339.5293 624,339.5293 C624,339.5293 606,339.5293 606,329.5293 L606,303.5293 " fill="#E2E2F0" style="stroke:#181818;stroke-width:1.5;"/><path d="M606,303.5293 C606,313.5293 624,313.5293 624,313.5293 C624,313.5293 642,313.5293 642,303.5293 " fill="none" style="stroke:#181818;stroke-width:1.5;"/><rect fill="#FFFFFF" height="147.2422" style="stroke:#181818;stroke-width:1.0;" width="10" x="217.5" y="112.7988"/><rect fill="#FFFFFF" height="88.6211" style="stroke:#181818;stroke-width:1.0;" width="10" x="354.5" y="142.1094"/><rect fill="#FFFFFF" height="59.3105" style="stroke:#181818;stroke-width:1.0;" width="10" x="492" y="171.4199"/><rect fill="#FFFFFF" height="30" style="stroke:#181818;stroke-width:1.0;" width="10" x="619" y="200.7305"/><polygon fill="#181818" points="205.5,108.7988,215.5,112.7988,205.5,116.7988,209.5,112.7988" style="stroke:#181818;stroke-width:1.0;"/><line style="stroke:#181818;stroke-width:1.0;" x1="23.5" x2="211.5" y1="112.7988" y2="112.7988"/><text fill="#000000" font-family="sans-serif" font-size="13" font-weight="bold" lengthAdjust="spacing" textLength="9" x="30.5" y="108.0566">1</text><text fill="#000000" font-family="sans-serif" font-size="13" lengthAdjust="spacing" textLength="99" x="43.5" y="108.0566">POST /products</text><polygon fill="#181818" points="342.5,138.1094,352.5,142.1094,342.5,146.1094,346.5,142.1094" style="stroke:#181818;stroke-width:1.0;"/><line style="stroke:#181818;stroke-width:1.0;" x1="227.5" x2="348.5" y1="142.1094" y2="142.1094"/><text fill="#000000" font-family="sans-serif" font-size="13" font-weight="bold" lengthAdjust="spacing" textLength="9" x="234.5" y="137.3672">2</text><text fill="#000000" font-family="sans-serif" font-size="13" lengthAdjust="spacing" textLength="95" x="247.5" y="137.3672">create(product)</text><polygon fill="#181818" points="480,167.4199,490,171.4199,480,175.4199,484,171.4199" style="stroke:#181818;stroke-width:1.0;"/><line style="stroke:#181818;stroke-width:1.0;" x1="364.5" x2="486" y1="171.4199" y2="171.4199"/><text fill="#000000" font-family="sans-serif" font-size="13" font-weight="bold" lengthAdjust="spacing" textLength="9" x="371.5" y="166.6777">3</text><text fill="#000000" font-family="sans-serif" font-size="13" lengthAdjust="spacing" textLength="85" x="384.5" y="166.6777">save(product)</text><polygon fill="#181818" points="607,196.7305,617,200.7305,607,204.7305,611,200.7305" style="stroke:#181818;stroke-width:1.0;"/><line style="stroke:#181818;stroke-width:1.0;" x1="502" x2="613" y1="200.7305" y2="200.7305"/><text fill="#000000" font-family="sans-serif" font-size="13" font-weight="bold" lengthAdjust="spacing" textLength="9" x="509" y="195.9883">4</text><text fill="#000000" font-family="sans-serif" font-size="13" lengthAdjust="spacing" textLength="85" x="522" y="195.9883">save(product)</text><polygon fill="#181818" points="34.5,256.041,24.5,260.041,34.5,264.041,30.5,260.041" style="stroke:#181818;stroke-width:1.0;"/><line style="stroke:#181818;stroke-width:1.0;stroke-dasharray:2.0,2.0;" x1="28.5" x2="221.5" y1="260.041" y2="260.041"/><text fill="#000000" font-family="sans-serif" font-size="13" font-weight="bold" lengthAdjust="spacing" textLength="9" x="40.5" y="255.2988">5</text><text fill="#000000" font-family="sans-serif" font-size="13" lengthAdjust="spacing" textLength="157" x="53.5" y="255.2988">Retorna o produto criado</text><!--SRC=[TP0zJyCm48Pt_uhRWA5apy2GXWsfaTEoNvqJM4firxv4ujzpbo01KZhuPCkFtmy_V3AdKbTL6Z7mF8tFBavLeTjCmT5XyFYHSJ86PuvXdgwKPUyuPhWKoe05Bhqr2JDxvvD8G9VZC3i-ni0vZkC67S_sRO_gAI_UaIAzVTyZBALOl1X-AMHVkvCPaF6AXQ2HqU8GYrwrZJ6I1GulgriDtQa_GvKscQAf_O9CMnOTYefh3IwJN3p-e4-_g6QI9PmQrr1msSFML3fKiMtkSX9ne3kdhHdzizv2YgRsgi6IV4D0YB1ASvJWNkh_VRQM-mO0]--></g></svg>