<?xml version="1.0" encoding="us-ascii" standalone="no"?><svg xmlns="http://www.w3.org/2000/svg" xmlns:xlink="http://www.w3.org/1999/xlink" contentStyleType="text/css" height="476px" preserveAspectRatio="none" style="width:1462px;height:476px;background:#FFFFFF;" version="1.1" viewBox="0 0 1462 476" width="1462px" zoomAndPan="magnify"><defs/><g><rect fill="#FFFFFF" height="264.7969" style="stroke:#181818;stroke-width:1.0;" width="10" x="275.5" y="112.4297"/><rect fill="#FFFFFF" height="206.5313" style="stroke:#181818;stroke-width:1.0;" width="10" x="559.5" y="141.5625"/><rect fill="#FFFFFF" height="30" style="stroke:#181818;stroke-width:1.0;" width="10" x="1029.5" y="170.6953"/><rect fill="#FFFFFF" height="59.1328" style="stroke:#181818;stroke-width:1.0;" width="10" x="1207.5" y="288.9609"/><rect fill="#FFFFFF" height="30" style="stroke:#181818;stroke-width:1.0;" width="10" x="1327" y="229.8281"/><rect fill="#FFFFFF" height="30" style="stroke:#181818;stroke-width:1.0;" width="10" x="1414" y="318.0938"/><line style="stroke:#181818;stroke-width:0.5;stroke-dasharray:5.0,5.0;" x1="23" x2="23" y1="81.2969" y2="395.2266"/><line style="stroke:#181818;stroke-width:0.5;stroke-dasharray:5.0,5.0;" x1="280" x2="280" y1="81.2969" y2="395.2266"/><line style="stroke:#181818;stroke-width:0.5;stroke-dasharray:5.0,5.0;" x1="564" x2="564" y1="81.2969" y2="395.2266"/><line style="stroke:#181818;stroke-width:0.5;stroke-dasharray:5.0,5.0;" x1="1034" x2="1034" y1="81.2969" y2="395.2266"/><line style="stroke:#181818;stroke-width:0.5;stroke-dasharray:5.0,5.0;" x1="1212" x2="1212" y1="81.2969" y2="395.2266"/><line style="stroke:#181818;stroke-width:0.5;stroke-dasharray:5.0,5.0;" x1="1332" x2="1332" y1="81.2969" y2="395.2266"/><line style="stroke:#181818;stroke-width:0.5;stroke-dasharray:5.0,5.0;" x1="1419" x2="1419" y1="81.2969" y2="395.2266"/><text fill="#000000" font-family="sans-serif" font-size="14" lengthAdjust="spacing" textLength="31" x="5" y="77.9951">User</text><ellipse cx="23.5" cy="13.5" fill="#E2E2F0" rx="8" ry="8" style="stroke:#181818;stroke-width:0.5;"/><path d="M23.5,21.5 L23.5,48.5 M10.5,29.5 L36.5,29.5 M23.5,48.5 L10.5,63.5 M23.5,48.5 L36.5,63.5 " fill="none" style="stroke:#181818;stroke-width:0.5;"/><text fill="#000000" font-family="sans-serif" font-size="14" lengthAdjust="spacing" textLength="31" x="5" y="407.2217">User</text><ellipse cx="23.5" cy="419.0234" fill="#E2E2F0" rx="8" ry="8" style="stroke:#181818;stroke-width:0.5;"/><path d="M23.5,427.0234 L23.5,454.0234 M10.5,435.0234 L36.5,435.0234 M23.5,454.0234 L10.5,469.0234 M23.5,454.0234 L36.5,469.0234 " fill="none" style="stroke:#181818;stroke-width:0.5;"/><rect fill="#E2E2F0" height="30.2969" rx="2.5" ry="2.5" style="stroke:#181818;stroke-width:0.5;" width="143" x="209" y="50"/><text fill="#000000" font-family="sans-serif" font-size="14" lengthAdjust="spacing" textLength="129" x="216" y="69.9951">ProductController</text><rect fill="#E2E2F0" height="30.2969" rx="2.5" ry="2.5" style="stroke:#181818;stroke-width:0.5;" width="143" x="209" y="394.2266"/><text fill="#000000" font-family="sans-serif" font-size="14" lengthAdjust="spacing" textLength="129" x="216" y="414.2217">ProductController</text><rect fill="#E2E2F0" height="30.2969" rx="2.5" ry="2.5" style="stroke:#181818;stroke-width:0.5;" width="123" x="503" y="50"/><text fill="#000000" font-family="sans-serif" font-size="14" lengthAdjust="spacing" textLength="109" x="510" y="69.9951">ProductService</text><rect fill="#E2E2F0" height="30.2969" rx="2.5" ry="2.5" style="stroke:#181818;stroke-width:0.5;" width="123" x="503" y="394.2266"/><text fill="#000000" font-family="sans-serif" font-size="14" lengthAdjust="spacing" textLength="109" x="510" y="414.2217">ProductService</text><rect fill="#E2E2F0" height="30.2969" rx="2.5" ry="2.5" style="stroke:#181818;stroke-width:0.5;" width="187" x="941" y="50"/><text fill="#000000" font-family="sans-serif" font-size="14" lengthAdjust="spacing" textLength="173" x="948" y="69.9951">SkuGenerationInterface</text><rect fill="#E2E2F0" height="30.2969" rx="2.5" ry="2.5" style="stroke:#181818;stroke-width:0.5;" width="187" x="941" y="394.2266"/><text fill="#000000" font-family="sans-serif" font-size="14" lengthAdjust="spacing" textLength="173" x="948" y="414.2217">SkuGenerationInterface</text><rect fill="#E2E2F0" height="30.2969" rx="2.5" ry="2.5" style="stroke:#181818;stroke-width:0.5;" width="149" x="1138" y="50"/><text fill="#000000" font-family="sans-serif" font-size="14" lengthAdjust="spacing" textLength="135" x="1145" y="69.9951">ProductRepository</text><rect fill="#E2E2F0" height="30.2969" rx="2.5" ry="2.5" style="stroke:#181818;stroke-width:0.5;" width="149" x="1138" y="394.2266"/><text fill="#000000" font-family="sans-serif" font-size="14" lengthAdjust="spacing" textLength="135" x="1145" y="414.2217">ProductRepository</text><rect fill="#E2E2F0" height="30.2969" rx="2.5" ry="2.5" style="stroke:#181818;stroke-width:0.5;" width="70" x="1297" y="50"/><text fill="#000000" font-family="sans-serif" font-size="14" lengthAdjust="spacing" textLength="56" x="1304" y="69.9951">Product</text><rect fill="#E2E2F0" height="30.2969" rx="2.5" ry="2.5" style="stroke:#181818;stroke-width:0.5;" width="70" x="1297" y="394.2266"/><text fill="#000000" font-family="sans-serif" font-size="14" lengthAdjust="spacing" textLength="56" x="1304" y="414.2217">Product</text><text fill="#000000" font-family="sans-serif" font-size="14" lengthAdjust="spacing" textLength="78" x="1377" y="77.9951">BaseDados</text><path d="M1401,29 C1401,19 1419,19 1419,19 C1419,19 1437,19 1437,29 L1437,55 C1437,65 1419,65 1419,65 C1419,65 1401,65 1401,55 L1401,29 " fill="#E2E2F0" style="stroke:#181818;stroke-width:1.5;"/><path d="M1401,29 C1401,39 1419,39 1419,39 C1419,39 1437,39 1437,29 " fill="none" style="stroke:#181818;stroke-width:1.5;"/><text fill="#000000" font-family="sans-serif" font-size="14" lengthAdjust="spacing" textLength="78" x="1377" y="407.2217">BaseDados</text><path d="M1401,420.5234 C1401,410.5234 1419,410.5234 1419,410.5234 C1419,410.5234 1437,410.5234 1437,420.5234 L1437,446.5234 C1437,456.5234 1419,456.5234 1419,456.5234 C1419,456.5234 1401,456.5234 1401,446.5234 L1401,420.5234 " fill="#E2E2F0" style="stroke:#181818;stroke-width:1.5;"/><path d="M1401,420.5234 C1401,430.5234 1419,430.5234 1419,430.5234 C1419,430.5234 1437,430.5234 1437,420.5234 " fill="none" style="stroke:#181818;stroke-width:1.5;"/><rect fill="#FFFFFF" height="264.7969" style="stroke:#181818;stroke-width:1.0;" width="10" x="275.5" y="112.4297"/><rect fill="#FFFFFF" height="206.5313" style="stroke:#181818;stroke-width:1.0;" width="10" x="559.5" y="141.5625"/><rect fill="#FFFFFF" height="30" style="stroke:#181818;stroke-width:1.0;" width="10" x="1029.5" y="170.6953"/><rect fill="#FFFFFF" height="59.1328" style="stroke:#181818;stroke-width:1.0;" width="10" x="1207.5" y="288.9609"/><rect fill="#FFFFFF" height="30" style="stroke:#181818;stroke-width:1.0;" width="10" x="1327" y="229.8281"/><rect fill="#FFFFFF" height="30" style="stroke:#181818;stroke-width:1.0;" width="10" x="1414" y="318.0938"/><polygon fill="#181818" points="263.5,108.4297,273.5,112.4297,263.5,116.4297,267.5,112.4297" style="stroke:#181818;stroke-width:1.0;"/><line style="stroke:#181818;stroke-width:1.0;" x1="23.5" x2="269.5" y1="112.4297" y2="112.4297"/><text fill="#000000" font-family="sans-serif" font-size="13" font-weight="bold" lengthAdjust="spacing" textLength="9" x="30.5" y="107.3638">1</text><text fill="#000000" font-family="sans-serif" font-size="13" lengthAdjust="spacing" textLength="220" x="43.5" y="107.3638">POST /products/createWithoutSku/</text><polygon fill="#181818" points="547.5,137.5625,557.5,141.5625,547.5,145.5625,551.5,141.5625" style="stroke:#181818;stroke-width:1.0;"/><line style="stroke:#181818;stroke-width:1.0;" x1="285.5" x2="553.5" y1="141.5625" y2="141.5625"/><text fill="#000000" font-family="sans-serif" font-size="13" font-weight="bold" lengthAdjust="spacing" textLength="9" x="292.5" y="136.4966">2</text><text fill="#000000" font-family="sans-serif" font-size="13" lengthAdjust="spacing" textLength="242" x="305.5" y="136.4966">createWithoutSku(productWithNoSku)</text><polygon fill="#181818" points="1017.5,166.6953,1027.5,170.6953,1017.5,174.6953,1021.5,170.6953" style="stroke:#181818;stroke-width:1.0;"/><line style="stroke:#181818;stroke-width:1.0;" x1="569.5" x2="1023.5" y1="170.6953" y2="170.6953"/><text fill="#000000" font-family="sans-serif" font-size="13" font-weight="bold" lengthAdjust="spacing" textLength="8" x="576.5" y="165.6294">3</text><text fill="#000000" font-family="sans-serif" font-size="13" lengthAdjust="spacing" textLength="429" x="588.5" y="165.6294">sku = SkuGenerationInterface.getSkuAlgorithm(productWithNoSku)</text><polygon fill="#181818" points="1315,225.8281,1325,229.8281,1315,233.8281,1319,229.8281" style="stroke:#181818;stroke-width:1.0;"/><line style="stroke:#181818;stroke-width:1.0;" x1="569.5" x2="1321" y1="229.8281" y2="229.8281"/><text fill="#000000" font-family="sans-serif" font-size="13" font-weight="bold" lengthAdjust="spacing" textLength="9" x="576.5" y="224.7622">4</text><text fill="#000000" font-family="sans-serif" font-size="13" lengthAdjust="spacing" textLength="301" x="589.5" y="224.7622">product = new Product(sku,productWithNoSku)</text><polygon fill="#181818" points="1195.5,284.9609,1205.5,288.9609,1195.5,292.9609,1199.5,288.9609" style="stroke:#181818;stroke-width:1.0;"/><line style="stroke:#181818;stroke-width:1.0;" x1="569.5" x2="1201.5" y1="288.9609" y2="288.9609"/><text fill="#000000" font-family="sans-serif" font-size="13" font-weight="bold" lengthAdjust="spacing" textLength="9" x="576.5" y="283.895">5</text><text fill="#000000" font-family="sans-serif" font-size="13" lengthAdjust="spacing" textLength="90" x="589.5" y="283.895">save(product)</text><polygon fill="#181818" points="1402,314.0938,1412,318.0938,1402,322.0938,1406,318.0938" style="stroke:#181818;stroke-width:1.0;"/><line style="stroke:#181818;stroke-width:1.0;" x1="1217.5" x2="1408" y1="318.0938" y2="318.0938"/><text fill="#000000" font-family="sans-serif" font-size="13" font-weight="bold" lengthAdjust="spacing" textLength="9" x="1224.5" y="313.0278">6</text><text fill="#000000" font-family="sans-serif" font-size="13" lengthAdjust="spacing" textLength="90" x="1237.5" y="313.0278">save(product)</text><polygon fill="#181818" points="34.5,373.2266,24.5,377.2266,34.5,381.2266,30.5,377.2266" style="stroke:#181818;stroke-width:1.0;"/><line style="stroke:#181818;stroke-width:1.0;stroke-dasharray:2.0,2.0;" x1="28.5" x2="279.5" y1="377.2266" y2="377.2266"/><text fill="#000000" font-family="sans-serif" font-size="13" font-weight="bold" lengthAdjust="spacing" textLength="9" x="40.5" y="372.1606">7</text><text fill="#000000" font-family="sans-serif" font-size="13" lengthAdjust="spacing" textLength="160" x="53.5" y="372.1606">Retorna o produto criado</text><!--SRC=[VL71JiCm3BttAt9ZI6ozLmA9hGYX8LQrAvopr6pHsgGapX1_ZzrkeaNR3hLgvxrd-_bcXzZw98xRMXeCJJrJjeazV0Km2gQLbbidcoYI0Qq9pGOS_IkqJfGUd91Ub4KUjTAXLheb2P4vMmM52slGsRhkGOjr_deELO0xQ0KCAVBt4QBOXsSmu2HgQruCWlkKH-IoFAULGskzfj5-69G_PQjpA7xByZIg9CgDz23c559PMSylwJoAQ24nVUX6JaIsAjOYRdkkZvK3YV2XSMS3qeGncw4FLEjNvC1aMYOH_y6JemnNtYmLRl_Ol3rzJ5sMYV3x8EulM33R0gizrblhIAcvAajMLJ1A-ovaGIAEHEfauFjaq8HwtrsHxCo3KTfBikCqkJp0QQ81gpi71tOddL_4qG46ukEiqnXkGvxrXfCcNoqHET3zZHIstmqj7K7JSOSqflm2]--></g></svg>