<?xml version="1.0" encoding="us-ascii" standalone="no"?><svg xmlns="http://www.w3.org/2000/svg" xmlns:xlink="http://www.w3.org/1999/xlink" contentStyleType="text/css" height="359px" preserveAspectRatio="none" style="width:706px;height:359px;background:#FFFFFF;" version="1.1" viewBox="0 0 706 359" width="706px" zoomAndPan="magnify"><defs/><g><rect fill="#FFFFFF" height="147.2422" style="stroke:#181818;stroke-width:1.0;" width="10" x="244.5" y="112.7988"/><rect fill="#FFFFFF" height="88.6211" style="stroke:#181818;stroke-width:1.0;" width="10" x="392.5" y="142.1094"/><rect fill="#FFFFFF" height="59.3105" style="stroke:#181818;stroke-width:1.0;" width="10" x="540.5" y="171.4199"/><rect fill="#FFFFFF" height="30" style="stroke:#181818;stroke-width:1.0;" width="10" x="660.5" y="200.7305"/><line style="stroke:#181818;stroke-width:0.5;stroke-dasharray:5.0,5.0;" x1="23" x2="23" y1="81.4883" y2="278.041"/><line style="stroke:#181818;stroke-width:0.5;stroke-dasharray:5.0,5.0;" x1="249" x2="249" y1="81.4883" y2="278.041"/><line style="stroke:#181818;stroke-width:0.5;stroke-dasharray:5.0,5.0;" x1="397" x2="397" y1="81.4883" y2="278.041"/><line style="stroke:#181818;stroke-width:0.5;stroke-dasharray:5.0,5.0;" x1="545.5" x2="545.5" y1="81.4883" y2="278.041"/><line style="stroke:#181818;stroke-width:0.5;stroke-dasharray:5.0,5.0;" x1="665.5" x2="665.5" y1="81.4883" y2="278.041"/><text fill="#000000" font-family="sans-serif" font-size="14" lengthAdjust="spacing" textLength="31" x="5" y="78.5352">User</text><ellipse cx="23.5" cy="13.5" fill="#E2E2F0" rx="8" ry="8" style="stroke:#181818;stroke-width:0.5;"/><path d="M23.5,21.5 L23.5,48.5 M10.5,29.5 L36.5,29.5 M23.5,48.5 L10.5,63.5 M23.5,48.5 L36.5,63.5 " fill="none" style="stroke:#181818;stroke-width:0.5;"/><text fill="#000000" font-family="sans-serif" font-size="14" lengthAdjust="spacing" textLength="31" x="5" y="290.5762">User</text><ellipse cx="23.5" cy="302.0293" fill="#E2E2F0" rx="8" ry="8" style="stroke:#181818;stroke-width:0.5;"/><path d="M23.5,310.0293 L23.5,337.0293 M10.5,318.0293 L36.5,318.0293 M23.5,337.0293 L10.5,352.0293 M23.5,337.0293 L36.5,352.0293 " fill="none" style="stroke:#181818;stroke-width:0.5;"/><rect fill="#E2E2F0" height="30.4883" rx="2.5" ry="2.5" style="stroke:#181818;stroke-width:0.5;" width="137" x="181" y="50"/><text fill="#000000" font-family="sans-serif" font-size="14" lengthAdjust="spacing" textLength="123" x="188" y="70.5352">ProductController</text><rect fill="#E2E2F0" height="30.4883" rx="2.5" ry="2.5" style="stroke:#181818;stroke-width:0.5;" width="137" x="181" y="277.041"/><text fill="#000000" font-family="sans-serif" font-size="14" lengthAdjust="spacing" textLength="123" x="188" y="297.5762">ProductController</text><rect fill="#E2E2F0" height="30.4883" rx="2.5" ry="2.5" style="stroke:#181818;stroke-width:0.5;" width="115" x="340" y="50"/><text fill="#000000" font-family="sans-serif" font-size="14" lengthAdjust="spacing" textLength="101" x="347" y="70.5352">ProductService</text><rect fill="#E2E2F0" height="30.4883" rx="2.5" ry="2.5" style="stroke:#181818;stroke-width:0.5;" width="115" x="340" y="277.041"/><text fill="#000000" font-family="sans-serif" font-size="14" lengthAdjust="spacing" textLength="101" x="347" y="297.5762">ProductService</text><rect fill="#E2E2F0" height="30.4883" rx="2.5" ry="2.5" style="stroke:#181818;stroke-width:0.5;" width="140" x="475.5" y="50"/><text fill="#000000" font-family="sans-serif" font-size="14" lengthAdjust="spacing" textLength="126" x="482.5" y="70.5352">ProductRepository</text><rect fill="#E2E2F0" height="30.4883" rx="2.5" ry="2.5" style="stroke:#181818;stroke-width:0.5;" width="140" x="475.5" y="277.041"/><text fill="#000000" font-family="sans-serif" font-size="14" lengthAdjust="spacing" textLength="126" x="482.5" y="297.5762">ProductRepository</text><text fill="#000000" font-family="sans-serif" font-size="14" lengthAdjust="spacing" textLength="74" x="625.5" y="78.5352">BaseDados</text><path d="M647.5,29 C647.5,19 665.5,19 665.5,19 C665.5,19 683.5,19 683.5,29 L683.5,55 C683.5,65 665.5,65 665.5,65 C665.5,65 647.5,65 647.5,55 L647.5,29 " fill="#E2E2F0" style="stroke:#181818;stroke-width:1.5;"/><path d="M647.5,29 C647.5,39 665.5,39 665.5,39 C665.5,39 683.5,39 683.5,29 " fill="none" style="stroke:#181818;stroke-width:1.5;"/><text fill="#000000" font-family="sans-serif" font-size="14" lengthAdjust="spacing" textLength="74" x="625.5" y="290.5762">BaseDados</text><path d="M647.5,303.5293 C647.5,293.5293 665.5,293.5293 665.5,293.5293 C665.5,293.5293 683.5,293.5293 683.5,303.5293 L683.5,329.5293 C683.5,339.5293 665.5,339.5293 665.5,339.5293 C665.5,339.5293 647.5,339.5293 647.5,329.5293 L647.5,303.5293 " fill="#E2E2F0" style="stroke:#181818;stroke-width:1.5;"/><path d="M647.5,303.5293 C647.5,313.5293 665.5,313.5293 665.5,313.5293 C665.5,313.5293 683.5,313.5293 683.5,303.5293 " fill="none" style="stroke:#181818;stroke-width:1.5;"/><rect fill="#FFFFFF" height="147.2422" style="stroke:#181818;stroke-width:1.0;" width="10" x="244.5" y="112.7988"/><rect fill="#FFFFFF" height="88.6211" style="stroke:#181818;stroke-width:1.0;" width="10" x="392.5" y="142.1094"/><rect fill="#FFFFFF" height="59.3105" style="stroke:#181818;stroke-width:1.0;" width="10" x="540.5" y="171.4199"/><rect fill="#FFFFFF" height="30" style="stroke:#181818;stroke-width:1.0;" width="10" x="660.5" y="200.7305"/><polygon fill="#181818" points="232.5,108.7988,242.5,112.7988,232.5,116.7988,236.5,112.7988" style="stroke:#181818;stroke-width:1.0;"/><line style="stroke:#181818;stroke-width:1.0;" x1="23.5" x2="238.5" y1="112.7988" y2="112.7988"/><text fill="#000000" font-family="sans-serif" font-size="13" font-weight="bold" lengthAdjust="spacing" textLength="9" x="30.5" y="108.0566">1</text><text fill="#000000" font-family="sans-serif" font-size="13" lengthAdjust="spacing" textLength="151" x="43.5" y="108.0566">DELETE /products/{sku}</text><polygon fill="#181818" points="380.5,138.1094,390.5,142.1094,380.5,146.1094,384.5,142.1094" style="stroke:#181818;stroke-width:1.0;"/><line style="stroke:#181818;stroke-width:1.0;" x1="254.5" x2="386.5" y1="142.1094" y2="142.1094"/><text fill="#000000" font-family="sans-serif" font-size="13" font-weight="bold" lengthAdjust="spacing" textLength="9" x="261.5" y="137.3672">2</text><text fill="#000000" font-family="sans-serif" font-size="13" lengthAdjust="spacing" textLength="106" x="274.5" y="137.3672">deleteBySku(sku)</text><polygon fill="#181818" points="528.5,167.4199,538.5,171.4199,528.5,175.4199,532.5,171.4199" style="stroke:#181818;stroke-width:1.0;"/><line style="stroke:#181818;stroke-width:1.0;" x1="402.5" x2="534.5" y1="171.4199" y2="171.4199"/><text fill="#000000" font-family="sans-serif" font-size="13" font-weight="bold" lengthAdjust="spacing" textLength="9" x="409.5" y="166.6777">3</text><text fill="#000000" font-family="sans-serif" font-size="13" lengthAdjust="spacing" textLength="106" x="422.5" y="166.6777">deleteBySku(sku)</text><polygon fill="#181818" points="648.5,196.7305,658.5,200.7305,648.5,204.7305,652.5,200.7305" style="stroke:#181818;stroke-width:1.0;"/><line style="stroke:#181818;stroke-width:1.0;" x1="550.5" x2="654.5" y1="200.7305" y2="200.7305"/><text fill="#000000" font-family="sans-serif" font-size="13" font-weight="bold" lengthAdjust="spacing" textLength="9" x="557.5" y="195.9883">4</text><text fill="#000000" font-family="sans-serif" font-size="13" lengthAdjust="spacing" textLength="77" x="570.5" y="195.9883">DELETE(sku)</text><polygon fill="#181818" points="34.5,256.041,24.5,260.041,34.5,264.041,30.5,260.041" style="stroke:#181818;stroke-width:1.0;"/><line style="stroke:#181818;stroke-width:1.0;stroke-dasharray:2.0,2.0;" x1="28.5" x2="248.5" y1="260.041" y2="260.041"/><text fill="#000000" font-family="sans-serif" font-size="13" font-weight="bold" lengthAdjust="spacing" textLength="9" x="40.5" y="255.2988">5</text><text fill="#000000" font-family="sans-serif" font-size="13" lengthAdjust="spacing" textLength="184" x="53.5" y="255.2988">Informa sucesso da opera&#231;&#227;o</text><!--SRC=[VO-_JiCm48TtFyLjm52oPs18am6f4bNIib_j0wmcEUEpArM8fs7WGVfYs8aGVrGOVBBbx-xttSLJ24xAed0zZY4E_RNceH1wZZHgMXYBZnu7fJ067kEm8v_kEh27hP075DXshNBeWzNMfH6mzcoY3aiUW-U-dw7bfbsTepho1wif8rrxVuveoR7O57ZCKDkixvJ1W3iKWYgL6WrB_gehfP8BB6wcj1BgPjLi6YZSF4YA5zd7rsnl3nXeTiebjwJq4Wpr5AWwTljucTYhBpRBfPF0RF0VEHdcagVMrQV6Boh96lhZDUz8Fx9dpJGnRrZ2xVZ0Va2Gg4c4mI2m8u-dzzCRV- -TTlm0]--></g></svg>