<?xml version="1.0" encoding="us-ascii" standalone="no"?><svg xmlns="http://www.w3.org/2000/svg" xmlns:xlink="http://www.w3.org/1999/xlink" contentStyleType="text/css" height="778px" preserveAspectRatio="none" style="width:2159px;height:778px;background:#FFFFFF;" version="1.1" viewBox="0 0 2159 778" width="2159px" zoomAndPan="magnify"><defs/><g><rect fill="#FFFFFF" height="560.0742" style="stroke:#181818;stroke-width:1.0;" width="10" x="262.5" y="116.9121"/><rect fill="#FFFFFF" height="505.4922" style="stroke:#181818;stroke-width:1.0;" width="10" x="738.5" y="148.2031"/><rect fill="#FFFFFF" height="247.7461" style="stroke:#181818;stroke-width:1.0;" width="10" x="973.5" y="179.4941"/><rect fill="#FFFFFF" height="31.291" style="stroke:#181818;stroke-width:1.0;" width="10" x="1502.5" y="210.7852"/><rect fill="#FFFFFF" height="92.582" style="stroke:#181818;stroke-width:1.0;" width="10" x="1678.5" y="334.6582"/><rect fill="#FFFFFF" height="61.291" style="stroke:#181818;stroke-width:1.0;" width="10" x="1835" y="242.0762"/><rect fill="#FFFFFF" height="61.291" style="stroke:#181818;stroke-width:1.0;" width="10" x="1835" y="365.9492"/><rect fill="#FFFFFF" height="61.291" style="stroke:#181818;stroke-width:1.0;" width="10" x="1835" y="458.5313"/><rect fill="#FFFFFF" height="61.291" style="stroke:#181818;stroke-width:1.0;" width="10" x="1835" y="577.4043"/><rect fill="#FFFFFF" height="30" style="stroke:#181818;stroke-width:1.0;" width="10" x="2099" y="273.3672"/><rect fill="#FFFFFF" height="30" style="stroke:#181818;stroke-width:1.0;" width="10" x="2099" y="397.2402"/><rect fill="#FFFFFF" height="30" style="stroke:#181818;stroke-width:1.0;" width="10" x="2099" y="489.8223"/><rect fill="#FFFFFF" height="30" style="stroke:#181818;stroke-width:1.0;" width="10" x="2099" y="608.6953"/><rect fill="none" height="111.873" style="stroke:#000000;stroke-width:1.5;" width="1522.5" x="631" y="534.8223"/><line style="stroke:#181818;stroke-width:0.5;stroke-dasharray:5.0,5.0;" x1="22" x2="22" y1="83.6211" y2="694.9863"/><line style="stroke:#181818;stroke-width:0.5;stroke-dasharray:5.0,5.0;" x1="267" x2="267" y1="83.6211" y2="694.9863"/><line style="stroke:#181818;stroke-width:0.5;stroke-dasharray:5.0,5.0;" x1="743" x2="743" y1="83.6211" y2="694.9863"/><line style="stroke:#181818;stroke-width:0.5;stroke-dasharray:5.0,5.0;" x1="978.5" x2="978.5" y1="83.6211" y2="694.9863"/><line style="stroke:#181818;stroke-width:0.5;stroke-dasharray:5.0,5.0;" x1="1507.5" x2="1507.5" y1="83.6211" y2="694.9863"/><line style="stroke:#181818;stroke-width:0.5;stroke-dasharray:5.0,5.0;" x1="1683.5" x2="1683.5" y1="83.6211" y2="694.9863"/><line style="stroke:#181818;stroke-width:0.5;stroke-dasharray:5.0,5.0;" x1="1839.5" x2="1839.5" y1="83.6211" y2="694.9863"/><line style="stroke:#181818;stroke-width:0.5;stroke-dasharray:5.0,5.0;" x1="2103.5" x2="2103.5" y1="83.6211" y2="694.9863"/><text fill="#000000" font-family="sans-serif" font-size="14" lengthAdjust="spacing" textLength="29" x="5" y="80.1074">User</text><ellipse cx="22.5" cy="13.5" fill="#E2E2F0" rx="8" ry="8" style="stroke:#181818;stroke-width:0.5;"/><path d="M22.5,21.5 L22.5,48.5 M9.5,29.5 L35.5,29.5 M22.5,48.5 L9.5,63.5 M22.5,48.5 L35.5,63.5 " fill="none" style="stroke:#181818;stroke-width:0.5;"/><text fill="#000000" font-family="sans-serif" font-size="14" lengthAdjust="spacing" textLength="29" x="5" y="709.0938">User</text><ellipse cx="22.5" cy="721.1074" fill="#E2E2F0" rx="8" ry="8" style="stroke:#181818;stroke-width:0.5;"/><path d="M22.5,729.1074 L22.5,756.1074 M9.5,737.1074 L35.5,737.1074 M22.5,756.1074 L9.5,771.1074 M22.5,756.1074 L35.5,771.1074 " fill="none" style="stroke:#181818;stroke-width:0.5;"/><rect fill="#E2E2F0" height="32.6211" rx="2.5" ry="2.5" style="stroke:#181818;stroke-width:0.5;" width="121" x="207" y="50"/><text fill="#000000" font-family="sans-serif" font-size="14" lengthAdjust="spacing" textLength="107" x="214" y="72.1074">ReviewController</text><rect fill="#E2E2F0" height="32.6211" rx="2.5" ry="2.5" style="stroke:#181818;stroke-width:0.5;" width="121" x="207" y="693.9863"/><text fill="#000000" font-family="sans-serif" font-size="14" lengthAdjust="spacing" textLength="107" x="214" y="716.0938">ReviewController</text><rect fill="#E2E2F0" height="32.6211" rx="2.5" ry="2.5" style="stroke:#181818;stroke-width:0.5;" width="205" x="641" y="50"/><text fill="#000000" font-family="sans-serif" font-size="14" lengthAdjust="spacing" textLength="191" x="648" y="72.1074">ReviewRecomendationService</text><rect fill="#E2E2F0" height="32.6211" rx="2.5" ry="2.5" style="stroke:#181818;stroke-width:0.5;" width="205" x="641" y="693.9863"/><text fill="#000000" font-family="sans-serif" font-size="14" lengthAdjust="spacing" textLength="191" x="648" y="716.0938">ReviewRecomendationService</text><rect fill="#E2E2F0" height="32.6211" rx="2.5" ry="2.5" style="stroke:#181818;stroke-width:0.5;" width="166" x="895.5" y="50"/><text fill="#000000" font-family="sans-serif" font-size="14" lengthAdjust="spacing" textLength="152" x="902.5" y="72.1074">ReviewRecomendation3</text><rect fill="#E2E2F0" height="32.6211" rx="2.5" ry="2.5" style="stroke:#181818;stroke-width:0.5;" width="166" x="895.5" y="693.9863"/><text fill="#000000" font-family="sans-serif" font-size="14" lengthAdjust="spacing" textLength="152" x="902.5" y="716.0938">ReviewRecomendation3</text><rect fill="#E2E2F0" height="32.6211" rx="2.5" ry="2.5" style="stroke:#181818;stroke-width:0.5;" width="166" x="1424.5" y="50"/><text fill="#000000" font-family="sans-serif" font-size="14" lengthAdjust="spacing" textLength="152" x="1431.5" y="72.1074">ReviewRecomendation1</text><rect fill="#E2E2F0" height="32.6211" rx="2.5" ry="2.5" style="stroke:#181818;stroke-width:0.5;" width="166" x="1424.5" y="693.9863"/><text fill="#000000" font-family="sans-serif" font-size="14" lengthAdjust="spacing" textLength="152" x="1431.5" y="716.0938">ReviewRecomendation1</text><rect fill="#E2E2F0" height="32.6211" rx="2.5" ry="2.5" style="stroke:#181818;stroke-width:0.5;" width="166" x="1600.5" y="50"/><text fill="#000000" font-family="sans-serif" font-size="14" lengthAdjust="spacing" textLength="152" x="1607.5" y="72.1074">ReviewRecomendation2</text><rect fill="#E2E2F0" height="32.6211" rx="2.5" ry="2.5" style="stroke:#181818;stroke-width:0.5;" width="166" x="1600.5" y="693.9863"/><text fill="#000000" font-family="sans-serif" font-size="14" lengthAdjust="spacing" textLength="152" x="1607.5" y="716.0938">ReviewRecomendation2</text><rect fill="#E2E2F0" height="32.6211" rx="2.5" ry="2.5" style="stroke:#181818;stroke-width:0.5;" width="127" x="1776.5" y="50"/><text fill="#000000" font-family="sans-serif" font-size="14" lengthAdjust="spacing" textLength="113" x="1783.5" y="72.1074">ReviewRepository</text><rect fill="#E2E2F0" height="32.6211" rx="2.5" ry="2.5" style="stroke:#181818;stroke-width:0.5;" width="127" x="1776.5" y="693.9863"/><text fill="#000000" font-family="sans-serif" font-size="14" lengthAdjust="spacing" textLength="113" x="1783.5" y="716.0938">ReviewRepository</text><text fill="#000000" font-family="sans-serif" font-size="14" lengthAdjust="spacing" textLength="73" x="2064.5" y="80.1074">BaseDados</text><path d="M2086,29 C2086,19 2104,19 2104,19 C2104,19 2122,19 2122,29 L2122,55 C2122,65 2104,65 2104,65 C2104,65 2086,65 2086,55 L2086,29 " fill="#E2E2F0" style="stroke:#181818;stroke-width:1.5;"/><path d="M2086,29 C2086,39 2104,39 2104,39 C2104,39 2122,39 2122,29 " fill="none" style="stroke:#181818;stroke-width:1.5;"/><text fill="#000000" font-family="sans-serif" font-size="14" lengthAdjust="spacing" textLength="73" x="2064.5" y="709.0938">BaseDados</text><path d="M2086,722.6074 C2086,712.6074 2104,712.6074 2104,712.6074 C2104,712.6074 2122,712.6074 2122,722.6074 L2122,748.6074 C2122,758.6074 2104,758.6074 2104,758.6074 C2104,758.6074 2086,758.6074 2086,748.6074 L2086,722.6074 " fill="#E2E2F0" style="stroke:#181818;stroke-width:1.5;"/><path d="M2086,722.6074 C2086,732.6074 2104,732.6074 2104,732.6074 C2104,732.6074 2122,732.6074 2122,722.6074 " fill="none" style="stroke:#181818;stroke-width:1.5;"/><rect fill="#FFFFFF" height="560.0742" style="stroke:#181818;stroke-width:1.0;" width="10" x="262.5" y="116.9121"/><rect fill="#FFFFFF" height="505.4922" style="stroke:#181818;stroke-width:1.0;" width="10" x="738.5" y="148.2031"/><rect fill="#FFFFFF" height="247.7461" style="stroke:#181818;stroke-width:1.0;" width="10" x="973.5" y="179.4941"/><rect fill="#FFFFFF" height="31.291" style="stroke:#181818;stroke-width:1.0;" width="10" x="1502.5" y="210.7852"/><rect fill="#FFFFFF" height="92.582" style="stroke:#181818;stroke-width:1.0;" width="10" x="1678.5" y="334.6582"/><rect fill="#FFFFFF" height="61.291" style="stroke:#181818;stroke-width:1.0;" width="10" x="1835" y="242.0762"/><rect fill="#FFFFFF" height="61.291" style="stroke:#181818;stroke-width:1.0;" width="10" x="1835" y="365.9492"/><rect fill="#FFFFFF" height="61.291" style="stroke:#181818;stroke-width:1.0;" width="10" x="1835" y="458.5313"/><rect fill="#FFFFFF" height="61.291" style="stroke:#181818;stroke-width:1.0;" width="10" x="1835" y="577.4043"/><rect fill="#FFFFFF" height="30" style="stroke:#181818;stroke-width:1.0;" width="10" x="2099" y="273.3672"/><rect fill="#FFFFFF" height="30" style="stroke:#181818;stroke-width:1.0;" width="10" x="2099" y="397.2402"/><rect fill="#FFFFFF" height="30" style="stroke:#181818;stroke-width:1.0;" width="10" x="2099" y="489.8223"/><rect fill="#FFFFFF" height="30" style="stroke:#181818;stroke-width:1.0;" width="10" x="2099" y="608.6953"/><polygon fill="#181818" points="250.5,112.9121,260.5,116.9121,250.5,120.9121,254.5,116.9121" style="stroke:#181818;stroke-width:1.0;"/><line style="stroke:#181818;stroke-width:1.0;" x1="22.5" x2="256.5" y1="116.9121" y2="116.9121"/><text fill="#000000" font-family="sans-serif" font-size="13" font-weight="bold" lengthAdjust="spacing" textLength="7" x="29.5" y="111.6494">1</text><text fill="#000000" font-family="sans-serif" font-size="13" lengthAdjust="spacing" textLength="209" x="40.5" y="111.6494">GET /reviews/recommended/{userId}</text><polygon fill="#181818" points="726.5,144.2031,736.5,148.2031,726.5,152.2031,730.5,148.2031" style="stroke:#181818;stroke-width:1.0;"/><line style="stroke:#181818;stroke-width:1.0;" x1="272.5" x2="732.5" y1="148.2031" y2="148.2031"/><text fill="#000000" font-family="sans-serif" font-size="13" font-weight="bold" lengthAdjust="spacing" textLength="7" x="279.5" y="142.9404">2</text><text fill="#000000" font-family="sans-serif" font-size="13" lengthAdjust="spacing" textLength="436" x="290.5" y="142.9404">reviews = ReviewRecomendationInterface.getReviewsRecommended(userId)</text><polygon fill="#181818" points="961.5,175.4941,971.5,179.4941,961.5,183.4941,965.5,179.4941" style="stroke:#181818;stroke-width:1.0;"/><line style="stroke:#181818;stroke-width:1.0;" x1="748.5" x2="967.5" y1="179.4941" y2="179.4941"/><text fill="#000000" font-family="sans-serif" font-size="13" font-weight="bold" lengthAdjust="spacing" textLength="7" x="755.5" y="174.2314">3</text><text fill="#000000" font-family="sans-serif" font-size="13" lengthAdjust="spacing" textLength="195" x="766.5" y="174.2314">getReviewsRecommended(userId)</text><polygon fill="#181818" points="1490.5,206.7852,1500.5,210.7852,1490.5,214.7852,1494.5,210.7852" style="stroke:#181818;stroke-width:1.0;"/><line style="stroke:#181818;stroke-width:1.0;" x1="983.5" x2="1496.5" y1="210.7852" y2="210.7852"/><text fill="#000000" font-family="sans-serif" font-size="13" font-weight="bold" lengthAdjust="spacing" textLength="7" x="990.5" y="205.5225">4</text><text fill="#000000" font-family="sans-serif" font-size="13" lengthAdjust="spacing" textLength="489" x="1001.5" y="205.5225">reviewsRecommend1 = ReviewRecommendation1.getReviewsRecommended(userId))</text><polygon fill="#181818" points="1823,238.0762,1833,242.0762,1823,246.0762,1827,242.0762" style="stroke:#181818;stroke-width:1.0;"/><line style="stroke:#181818;stroke-width:1.0;" x1="1507.5" x2="1829" y1="242.0762" y2="242.0762"/><text fill="#000000" font-family="sans-serif" font-size="13" font-weight="bold" lengthAdjust="spacing" textLength="7" x="1514.5" y="236.8135">5</text><text fill="#000000" font-family="sans-serif" font-size="13" lengthAdjust="spacing" textLength="43" x="1525.5" y="236.8135">findAll()</text><polygon fill="#181818" points="2087,269.3672,2097,273.3672,2087,277.3672,2091,273.3672" style="stroke:#181818;stroke-width:1.0;"/><line style="stroke:#181818;stroke-width:1.0;" x1="1845" x2="2093" y1="273.3672" y2="273.3672"/><text fill="#000000" font-family="sans-serif" font-size="13" font-weight="bold" lengthAdjust="spacing" textLength="7" x="1852" y="268.1045">6</text><text fill="#000000" font-family="sans-serif" font-size="13" lengthAdjust="spacing" textLength="43" x="1863" y="268.1045">findAll()</text><polygon fill="#181818" points="1666.5,330.6582,1676.5,334.6582,1666.5,338.6582,1670.5,334.6582" style="stroke:#181818;stroke-width:1.0;"/><line style="stroke:#181818;stroke-width:1.0;" x1="983.5" x2="1672.5" y1="334.6582" y2="334.6582"/><text fill="#000000" font-family="sans-serif" font-size="13" font-weight="bold" lengthAdjust="spacing" textLength="7" x="990.5" y="329.3955">7</text><text fill="#000000" font-family="sans-serif" font-size="13" lengthAdjust="spacing" textLength="489" x="1001.5" y="329.3955">reviewsRecommend2 = ReviewRecommendation2.getReviewsRecommended(userId))</text><polygon fill="#181818" points="1823,361.9492,1833,365.9492,1823,369.9492,1827,365.9492" style="stroke:#181818;stroke-width:1.0;"/><line style="stroke:#181818;stroke-width:1.0;" x1="1688.5" x2="1829" y1="365.9492" y2="365.9492"/><text fill="#000000" font-family="sans-serif" font-size="13" font-weight="bold" lengthAdjust="spacing" textLength="7" x="1695.5" y="360.6865">8</text><text fill="#000000" font-family="sans-serif" font-size="13" lengthAdjust="spacing" textLength="43" x="1706.5" y="360.6865">findAll()</text><polygon fill="#181818" points="2087,393.2402,2097,397.2402,2087,401.2402,2091,397.2402" style="stroke:#181818;stroke-width:1.0;"/><line style="stroke:#181818;stroke-width:1.0;" x1="1845" x2="2093" y1="397.2402" y2="397.2402"/><text fill="#000000" font-family="sans-serif" font-size="13" font-weight="bold" lengthAdjust="spacing" textLength="7" x="1852" y="391.9775">9</text><text fill="#000000" font-family="sans-serif" font-size="13" lengthAdjust="spacing" textLength="43" x="1863" y="391.9775">findAll()</text><polygon fill="#181818" points="1823,454.5313,1833,458.5313,1823,462.5313,1827,458.5313" style="stroke:#181818;stroke-width:1.0;"/><line style="stroke:#181818;stroke-width:1.0;" x1="748.5" x2="1829" y1="458.5313" y2="458.5313"/><text fill="#000000" font-family="sans-serif" font-size="13" font-weight="bold" lengthAdjust="spacing" textLength="14" x="755.5" y="453.2686">10</text><text fill="#000000" font-family="sans-serif" font-size="13" lengthAdjust="spacing" textLength="329" x="773.5" y="453.2686">personalReviews = findByUserIdRecommendation(userId)</text><polygon fill="#181818" points="2087,485.8223,2097,489.8223,2087,493.8223,2091,489.8223" style="stroke:#181818;stroke-width:1.0;"/><line style="stroke:#181818;stroke-width:1.0;" x1="1845" x2="2093" y1="489.8223" y2="489.8223"/><text fill="#000000" font-family="sans-serif" font-size="13" font-weight="bold" lengthAdjust="spacing" textLength="14" x="1852" y="484.5596">11</text><text fill="#000000" font-family="sans-serif" font-size="13" lengthAdjust="spacing" textLength="217" x="1870" y="484.5596">findByUserIdRecommendation(userId)</text><path d="M631,534.8223 L704,534.8223 L704,544.1133 L694,554.1133 L631,554.1133 L631,534.8223 " fill="#EEEEEE" style="stroke:#000000;stroke-width:1.5;"/><rect fill="none" height="111.873" style="stroke:#000000;stroke-width:1.5;" width="1522.5" x="631" y="534.8223"/><text fill="#000000" font-family="sans-serif" font-size="13" font-weight="bold" lengthAdjust="spacing" textLength="28" x="646" y="549.8506">loop</text><text fill="#000000" font-family="sans-serif" font-size="11" font-weight="bold" lengthAdjust="spacing" textLength="140" x="719" y="548.6924">[all the commonReviews]</text><polygon fill="#181818" points="1823,573.4043,1833,577.4043,1823,581.4043,1827,577.4043" style="stroke:#181818;stroke-width:1.0;"/><line style="stroke:#181818;stroke-width:1.0;" x1="748.5" x2="1829" y1="577.4043" y2="577.4043"/><text fill="#000000" font-family="sans-serif" font-size="13" font-weight="bold" lengthAdjust="spacing" textLength="14" x="755.5" y="572.1416">12</text><text fill="#000000" font-family="sans-serif" font-size="13" lengthAdjust="spacing" textLength="106" x="773.5" y="572.1416">findByUserId(user)</text><polygon fill="#181818" points="2087,604.6953,2097,608.6953,2087,612.6953,2091,608.6953" style="stroke:#181818;stroke-width:1.0;"/><line style="stroke:#181818;stroke-width:1.0;" x1="1845" x2="2093" y1="608.6953" y2="608.6953"/><text fill="#000000" font-family="sans-serif" font-size="13" font-weight="bold" lengthAdjust="spacing" textLength="14" x="1852" y="603.4326">13</text><text fill="#000000" font-family="sans-serif" font-size="13" lengthAdjust="spacing" textLength="106" x="1870" y="603.4326">findByUserId(user)</text><polygon fill="#181818" points="33.5,672.9863,23.5,676.9863,33.5,680.9863,29.5,676.9863" style="stroke:#181818;stroke-width:1.0;"/><line style="stroke:#181818;stroke-width:1.0;stroke-dasharray:2.0,2.0;" x1="27.5" x2="266.5" y1="676.9863" y2="676.9863"/><text fill="#000000" font-family="sans-serif" font-size="13" font-weight="bold" lengthAdjust="spacing" textLength="14" x="39.5" y="671.7236">14</text><text fill="#000000" font-family="sans-serif" font-size="13" lengthAdjust="spacing" textLength="198" x="57.5" y="671.7236">Retorna as reviews recomendadas</text><!--SRC=[fLHTRwCm47pdL-nRsuSK0Mz8Lwb9gYhIINUYpGzmOTjOScngcvoggl_zTWqbqDBGqprWG9xPcLb_dEsyhrqUnxKIsZTxTLcQVUpmkK5TugAIuicAVHI9nXlTx1_GqdVfZOMjGml2mVQkY6fXlInbJIMWm8F4FokZlJLAjPZLVV5p0bGWYQ6kX9T6tw4zo18PNXIRENJMuR8vOD81apbWsW7JIM1jdAJKBm5qy_jNH2Jn81p2aeQrg8pZgVKoYgWXiBWAcNEulRc7s8OYZjwanu9OnQyDzMzJlN4tvK5uR9l40v79HmuT3NvCsTreZ_PHb7ZvXBwTTyMn_dbR_k9OdfjA3xJLino-pykOc7NCf3VMqvAnnMFlJtiRYoGiaWGHwcyEZr9NrqgTNqGLZd77Fru87fYrNiAGr8DeIOO5mjhXS9QpBQvuvJydIxz8blvBifGbqgba_vFaTAuWUte- -V2VzTiZkApHEgE5AlfTo9QMBziGSToEYLqp6UYxxDcaofWQX5BWTmXSo-ZEvpZ4K3J8V6tnD7ZM4ONvqCyP0fzqM90qtnSvxJAwNhJWI-JztDltyru9DwI7Y-8l]--></g></svg>