<?xml version="1.0" encoding="us-ascii" standalone="no"?><svg xmlns="http://www.w3.org/2000/svg" xmlns:xlink="http://www.w3.org/1999/xlink" contentStyleType="text/css" height="447px" preserveAspectRatio="none" style="width:1238px;height:447px;background:#FFFFFF;" version="1.1" viewBox="0 0 1238 447" width="1238px" zoomAndPan="magnify"><defs/><g><rect fill="#FFFFFF" height="257.1738" style="stroke:#181818;stroke-width:1.0;" width="10" x="18.5" y="91.4883"/><rect fill="#FFFFFF" height="235.8633" style="stroke:#181818;stroke-width:1.0;" width="10" x="297.5" y="112.7988"/><rect fill="#FFFFFF" height="215.5527" style="stroke:#181818;stroke-width:1.0;" width="10" x="550.5" y="142.1094"/><rect fill="#FFFFFF" height="59.3105" style="stroke:#181818;stroke-width:1.0;" width="10" x="752.5" y="171.4199"/><rect fill="#FFFFFF" height="59.3105" style="stroke:#181818;stroke-width:1.0;" width="10" x="899.5" y="260.041"/><rect fill="#FFFFFF" height="30" style="stroke:#181818;stroke-width:1.0;" width="10" x="1183.5" y="200.7305"/><rect fill="#FFFFFF" height="30" style="stroke:#181818;stroke-width:1.0;" width="10" x="1183.5" y="289.3516"/><line style="stroke:#181818;stroke-width:0.5;stroke-dasharray:5.0,5.0;" x1="23" x2="23" y1="81.4883" y2="366.6621"/><line style="stroke:#181818;stroke-width:0.5;stroke-dasharray:5.0,5.0;" x1="302" x2="302" y1="81.4883" y2="366.6621"/><line style="stroke:#181818;stroke-width:0.5;stroke-dasharray:5.0,5.0;" x1="555" x2="555" y1="81.4883" y2="366.6621"/><line style="stroke:#181818;stroke-width:0.5;stroke-dasharray:5.0,5.0;" x1="757.5" x2="757.5" y1="81.4883" y2="366.6621"/><line style="stroke:#181818;stroke-width:0.5;stroke-dasharray:5.0,5.0;" x1="904.5" x2="904.5" y1="81.4883" y2="366.6621"/><line style="stroke:#181818;stroke-width:0.5;stroke-dasharray:5.0,5.0;" x1="1188.5" x2="1188.5" y1="81.4883" y2="366.6621"/><text fill="#000000" font-family="sans-serif" font-size="14" lengthAdjust="spacing" textLength="31" x="5" y="78.5352">User</text><ellipse cx="23.5" cy="13.5" fill="#E2E2F0" rx="8" ry="8" style="stroke:#181818;stroke-width:0.5;"/><path d="M23.5,21.5 L23.5,48.5 M10.5,29.5 L36.5,29.5 M23.5,48.5 L10.5,63.5 M23.5,48.5 L36.5,63.5 " fill="none" style="stroke:#181818;stroke-width:0.5;"/><text fill="#000000" font-family="sans-serif" font-size="14" lengthAdjust="spacing" textLength="31" x="5" y="379.1973">User</text><ellipse cx="23.5" cy="390.6504" fill="#E2E2F0" rx="8" ry="8" style="stroke:#181818;stroke-width:0.5;"/><path d="M23.5,398.6504 L23.5,425.6504 M10.5,406.6504 L36.5,406.6504 M23.5,425.6504 L10.5,440.6504 M23.5,425.6504 L36.5,440.6504 " fill="none" style="stroke:#181818;stroke-width:0.5;"/><rect fill="#E2E2F0" height="30.4883" rx="2.5" ry="2.5" style="stroke:#181818;stroke-width:0.5;" width="131" x="237" y="50"/><text fill="#000000" font-family="sans-serif" font-size="14" lengthAdjust="spacing" textLength="117" x="244" y="70.5352">ReviewController</text><rect fill="#E2E2F0" height="30.4883" rx="2.5" ry="2.5" style="stroke:#181818;stroke-width:0.5;" width="131" x="237" y="365.6621"/><text fill="#000000" font-family="sans-serif" font-size="14" lengthAdjust="spacing" textLength="117" x="244" y="386.1973">ReviewController</text><rect fill="#E2E2F0" height="30.4883" rx="2.5" ry="2.5" style="stroke:#181818;stroke-width:0.5;" width="109" x="501" y="50"/><text fill="#000000" font-family="sans-serif" font-size="14" lengthAdjust="spacing" textLength="95" x="508" y="70.5352">ReviewService</text><rect fill="#E2E2F0" height="30.4883" rx="2.5" ry="2.5" style="stroke:#181818;stroke-width:0.5;" width="109" x="501" y="365.6621"/><text fill="#000000" font-family="sans-serif" font-size="14" lengthAdjust="spacing" textLength="95" x="508" y="386.1973">ReviewService</text><rect fill="#E2E2F0" height="30.4883" rx="2.5" ry="2.5" style="stroke:#181818;stroke-width:0.5;" width="140" x="687.5" y="50"/><text fill="#000000" font-family="sans-serif" font-size="14" lengthAdjust="spacing" textLength="126" x="694.5" y="70.5352">ProductRepository</text><rect fill="#E2E2F0" height="30.4883" rx="2.5" ry="2.5" style="stroke:#181818;stroke-width:0.5;" width="140" x="687.5" y="365.6621"/><text fill="#000000" font-family="sans-serif" font-size="14" lengthAdjust="spacing" textLength="126" x="694.5" y="386.1973">ProductRepository</text><rect fill="#E2E2F0" height="30.4883" rx="2.5" ry="2.5" style="stroke:#181818;stroke-width:0.5;" width="134" x="837.5" y="50"/><text fill="#000000" font-family="sans-serif" font-size="14" lengthAdjust="spacing" textLength="120" x="844.5" y="70.5352">ReviewRepository</text><rect fill="#E2E2F0" height="30.4883" rx="2.5" ry="2.5" style="stroke:#181818;stroke-width:0.5;" width="134" x="837.5" y="365.6621"/><text fill="#000000" font-family="sans-serif" font-size="14" lengthAdjust="spacing" textLength="120" x="844.5" y="386.1973">ReviewRepository</text><rect fill="#E2E2F0" height="30.4883" rx="2.5" ry="2.5" style="stroke:#181818;stroke-width:0.5;" width="88" x="1144.5" y="50"/><text fill="#000000" font-family="sans-serif" font-size="14" lengthAdjust="spacing" textLength="74" x="1151.5" y="70.5352">BaseDados</text><rect fill="#E2E2F0" height="30.4883" rx="2.5" ry="2.5" style="stroke:#181818;stroke-width:0.5;" width="88" x="1144.5" y="365.6621"/><text fill="#000000" font-family="sans-serif" font-size="14" lengthAdjust="spacing" textLength="74" x="1151.5" y="386.1973">BaseDados</text><rect fill="#FFFFFF" height="257.1738" style="stroke:#181818;stroke-width:1.0;" width="10" x="18.5" y="91.4883"/><rect fill="#FFFFFF" height="235.8633" style="stroke:#181818;stroke-width:1.0;" width="10" x="297.5" y="112.7988"/><rect fill="#FFFFFF" height="215.5527" style="stroke:#181818;stroke-width:1.0;" width="10" x="550.5" y="142.1094"/><rect fill="#FFFFFF" height="59.3105" style="stroke:#181818;stroke-width:1.0;" width="10" x="752.5" y="171.4199"/><rect fill="#FFFFFF" height="59.3105" style="stroke:#181818;stroke-width:1.0;" width="10" x="899.5" y="260.041"/><rect fill="#FFFFFF" height="30" style="stroke:#181818;stroke-width:1.0;" width="10" x="1183.5" y="200.7305"/><rect fill="#FFFFFF" height="30" style="stroke:#181818;stroke-width:1.0;" width="10" x="1183.5" y="289.3516"/><polygon fill="#181818" points="285.5,108.7988,295.5,112.7988,285.5,116.7988,289.5,112.7988" style="stroke:#181818;stroke-width:1.0;"/><line style="stroke:#181818;stroke-width:1.0;" x1="28.5" x2="291.5" y1="112.7988" y2="112.7988"/><text fill="#000000" font-family="sans-serif" font-size="13" font-weight="bold" lengthAdjust="spacing" textLength="9" x="35.5" y="108.0566">1</text><text fill="#000000" font-family="sans-serif" font-size="13" lengthAdjust="spacing" textLength="237" x="48.5" y="108.0566">GET /products/{sku}/reviews/{status}</text><polygon fill="#181818" points="538.5,138.1094,548.5,142.1094,538.5,146.1094,542.5,142.1094" style="stroke:#181818;stroke-width:1.0;"/><line style="stroke:#181818;stroke-width:1.0;" x1="307.5" x2="544.5" y1="142.1094" y2="142.1094"/><text fill="#000000" font-family="sans-serif" font-size="13" font-weight="bold" lengthAdjust="spacing" textLength="9" x="314.5" y="137.3672">2</text><text fill="#000000" font-family="sans-serif" font-size="13" lengthAdjust="spacing" textLength="211" x="327.5" y="137.3672">getReviewsOfProduct(sku, status)</text><polygon fill="#181818" points="740.5,167.4199,750.5,171.4199,740.5,175.4199,744.5,171.4199" style="stroke:#181818;stroke-width:1.0;"/><line style="stroke:#181818;stroke-width:1.0;stroke-dasharray:2.0,2.0;" x1="560.5" x2="746.5" y1="171.4199" y2="171.4199"/><text fill="#000000" font-family="sans-serif" font-size="13" font-weight="bold" lengthAdjust="spacing" textLength="9" x="567.5" y="166.6777">3</text><text fill="#000000" font-family="sans-serif" font-size="13" lengthAdjust="spacing" textLength="160" x="580.5" y="166.6777">product = findBySku(sku)</text><polygon fill="#181818" points="1171.5,196.7305,1181.5,200.7305,1171.5,204.7305,1175.5,200.7305" style="stroke:#181818;stroke-width:1.0;"/><line style="stroke:#181818;stroke-width:1.0;" x1="762.5" x2="1177.5" y1="200.7305" y2="200.7305"/><text fill="#000000" font-family="sans-serif" font-size="13" font-weight="bold" lengthAdjust="spacing" textLength="9" x="769.5" y="195.9883">4</text><text fill="#000000" font-family="sans-serif" font-size="13" lengthAdjust="spacing" textLength="93" x="782.5" y="195.9883">findBySku(sku)</text><polygon fill="#181818" points="887.5,256.041,897.5,260.041,887.5,264.041,891.5,260.041" style="stroke:#181818;stroke-width:1.0;"/><line style="stroke:#181818;stroke-width:1.0;" x1="560.5" x2="893.5" y1="260.041" y2="260.041"/><text fill="#000000" font-family="sans-serif" font-size="13" font-weight="bold" lengthAdjust="spacing" textLength="9" x="567.5" y="255.2988">5</text><text fill="#000000" font-family="sans-serif" font-size="13" lengthAdjust="spacing" textLength="297" x="580.5" y="255.2988">r = findByProductIdStatus(product.get(), status)</text><polygon fill="#181818" points="1171.5,285.3516,1181.5,289.3516,1171.5,293.3516,1175.5,289.3516" style="stroke:#181818;stroke-width:1.0;"/><line style="stroke:#181818;stroke-width:1.0;" x1="909.5" x2="1177.5" y1="289.3516" y2="289.3516"/><text fill="#000000" font-family="sans-serif" font-size="13" font-weight="bold" lengthAdjust="spacing" textLength="9" x="916.5" y="284.6094">6</text><text fill="#000000" font-family="sans-serif" font-size="13" lengthAdjust="spacing" textLength="242" x="929.5" y="284.6094">findByProductIdStatus(product, status)</text><polygon fill="#181818" points="34.5,344.6621,24.5,348.6621,34.5,352.6621,30.5,348.6621" style="stroke:#181818;stroke-width:1.0;"/><line style="stroke:#181818;stroke-width:1.0;stroke-dasharray:2.0,2.0;" x1="28.5" x2="301.5" y1="348.6621" y2="348.6621"/><text fill="#000000" font-family="sans-serif" font-size="13" font-weight="bold" lengthAdjust="spacing" textLength="9" x="40.5" y="343.9199">7</text><text fill="#000000" font-family="sans-serif" font-size="13" lengthAdjust="spacing" textLength="160" x="53.5" y="343.9199">Retorna a lista de reviews</text><!--SRC=[ZLBDJiCm3BxtANoZazXwZyGE0uGuWLhs0ARnHhIsAVafcj3U7NShMzUqY4CEiPtlBxxvSAws8adg0YldosAHwpAnzEcfocak5MuDbb64tkdAb-za8ioTDh2sP00jhBCqgj4ubQkQ4I2bHj7NlQwSqKN1us4p8zEedAuwhqPBdxkKQcqLu-z7taqqLsZf0QMsKIjDDUZeg8eFp9U1805FZs-Gr2T2ctpRdJyavZZLtXmwRmyNgC3Gi70XwOm9s98xLUpBfdCMCyqjdD1dG_JVHAAhAymPEGX6G2STxc2ZAhdQPplVelTGmpI3Iglwd9oOHBg4A-dlOiWvTBCC_b60ERletZ_Bx9XHtBbSS9RnR3Av7jsmCEfmWcK4___E0oKZAy9QU1y5p_94XO1GAAO4IT2jNeZOsxbUZs5-0000]--></g></svg>