<?xml version="1.0" encoding="us-ascii" standalone="no"?><svg xmlns="http://www.w3.org/2000/svg" xmlns:xlink="http://www.w3.org/1999/xlink" contentStyleType="text/css" height="838px" preserveAspectRatio="none" style="width:1903px;height:838px;background:#FFFFFF;" version="1.1" viewBox="0 0 1903 838" width="1903px" zoomAndPan="magnify"><defs/><g><rect fill="#FFFFFF" height="626.2793" style="stroke:#181818;stroke-width:1.0;" width="10" x="226.5" y="112.7988"/><rect fill="#FFFFFF" height="88.6211" style="stroke:#181818;stroke-width:1.0;" width="10" x="377.5" y="166.4199"/><rect fill="#FFFFFF" height="59.3105" style="stroke:#181818;stroke-width:1.0;" width="10" x="545" y="195.7305"/><rect fill="#FFFFFF" height="88.6211" style="stroke:#181818;stroke-width:1.0;" width="10" x="736.5" y="315.6621"/><rect fill="#FFFFFF" height="59.3105" style="stroke:#181818;stroke-width:1.0;" width="10" x="937" y="344.9727"/><rect fill="#FFFFFF" height="88.6211" style="stroke:#181818;stroke-width:1.0;" width="10" x="1132" y="464.9043"/><rect fill="#FFFFFF" height="59.3105" style="stroke:#181818;stroke-width:1.0;" width="10" x="1321.5" y="494.2148"/><rect fill="#FFFFFF" height="88.6211" style="stroke:#181818;stroke-width:1.0;" width="10" x="1512.5" y="614.1465"/><rect fill="#FFFFFF" height="59.3105" style="stroke:#181818;stroke-width:1.0;" width="10" x="1703.5" y="643.457"/><rect fill="#FFFFFF" height="30" style="stroke:#181818;stroke-width:1.0;" width="10" x="1842" y="225.041"/><rect fill="#FFFFFF" height="30" style="stroke:#181818;stroke-width:1.0;" width="10" x="1842" y="374.2832"/><rect fill="#FFFFFF" height="30" style="stroke:#181818;stroke-width:1.0;" width="10" x="1842" y="523.5254"/><rect fill="#FFFFFF" height="30" style="stroke:#181818;stroke-width:1.0;" width="10" x="1842" y="672.7676"/><rect fill="none" height="135.2422" style="stroke:#000000;stroke-width:1.5;" width="1744" x="153" y="127.7988"/><rect fill="none" height="135.2422" style="stroke:#000000;stroke-width:1.5;" width="1744" x="153" y="277.041"/><rect fill="none" height="135.2422" style="stroke:#000000;stroke-width:1.5;" width="1744" x="153" y="426.2832"/><rect fill="none" height="135.2422" style="stroke:#000000;stroke-width:1.5;" width="1744" x="153" y="575.5254"/><line style="stroke:#181818;stroke-width:0.5;stroke-dasharray:5.0,5.0;" x1="23" x2="23" y1="81.4883" y2="757.0781"/><line style="stroke:#181818;stroke-width:0.5;stroke-dasharray:5.0,5.0;" x1="231" x2="231" y1="81.4883" y2="757.0781"/><line style="stroke:#181818;stroke-width:0.5;stroke-dasharray:5.0,5.0;" x1="382" x2="382" y1="81.4883" y2="757.0781"/><line style="stroke:#181818;stroke-width:0.5;stroke-dasharray:5.0,5.0;" x1="550" x2="550" y1="81.4883" y2="757.0781"/><line style="stroke:#181818;stroke-width:0.5;stroke-dasharray:5.0,5.0;" x1="741" x2="741" y1="81.4883" y2="757.0781"/><line style="stroke:#181818;stroke-width:0.5;stroke-dasharray:5.0,5.0;" x1="942" x2="942" y1="81.4883" y2="757.0781"/><line style="stroke:#181818;stroke-width:0.5;stroke-dasharray:5.0,5.0;" x1="1137" x2="1137" y1="81.4883" y2="757.0781"/><line style="stroke:#181818;stroke-width:0.5;stroke-dasharray:5.0,5.0;" x1="1326" x2="1326" y1="81.4883" y2="757.0781"/><line style="stroke:#181818;stroke-width:0.5;stroke-dasharray:5.0,5.0;" x1="1517" x2="1517" y1="81.4883" y2="757.0781"/><line style="stroke:#181818;stroke-width:0.5;stroke-dasharray:5.0,5.0;" x1="1708" x2="1708" y1="81.4883" y2="757.0781"/><line style="stroke:#181818;stroke-width:0.5;stroke-dasharray:5.0,5.0;" x1="1847" x2="1847" y1="81.4883" y2="757.0781"/><text fill="#000000" font-family="sans-serif" font-size="14" lengthAdjust="spacing" textLength="31" x="5" y="78.5352">User</text><ellipse cx="23.5" cy="13.5" fill="#E2E2F0" rx="8" ry="8" style="stroke:#181818;stroke-width:0.5;"/><path d="M23.5,21.5 L23.5,48.5 M10.5,29.5 L36.5,29.5 M23.5,48.5 L10.5,63.5 M23.5,48.5 L36.5,63.5 " fill="none" style="stroke:#181818;stroke-width:0.5;"/><text fill="#000000" font-family="sans-serif" font-size="14" lengthAdjust="spacing" textLength="31" x="5" y="769.6133">User</text><ellipse cx="23.5" cy="781.0664" fill="#E2E2F0" rx="8" ry="8" style="stroke:#181818;stroke-width:0.5;"/><path d="M23.5,789.0664 L23.5,816.0664 M10.5,797.0664 L36.5,797.0664 M23.5,816.0664 L10.5,831.0664 M23.5,816.0664 L36.5,831.0664 " fill="none" style="stroke:#181818;stroke-width:0.5;"/><rect fill="#E2E2F0" height="30.4883" rx="2.5" ry="2.5" style="stroke:#181818;stroke-width:0.5;" width="137" x="163" y="50"/><text fill="#000000" font-family="sans-serif" font-size="14" lengthAdjust="spacing" textLength="123" x="170" y="70.5352">ProductController</text><rect fill="#E2E2F0" height="30.4883" rx="2.5" ry="2.5" style="stroke:#181818;stroke-width:0.5;" width="137" x="163" y="756.0781"/><text fill="#000000" font-family="sans-serif" font-size="14" lengthAdjust="spacing" textLength="123" x="170" y="776.6133">ProductController</text><rect fill="#E2E2F0" height="30.4883" rx="2.5" ry="2.5" style="stroke:#181818;stroke-width:0.5;" width="145" x="310" y="50"/><text fill="#000000" font-family="sans-serif" font-size="14" lengthAdjust="spacing" textLength="131" x="317" y="70.5352">ProductServiceImpl</text><rect fill="#E2E2F0" height="30.4883" rx="2.5" ry="2.5" style="stroke:#181818;stroke-width:0.5;" width="145" x="310" y="756.0781"/><text fill="#000000" font-family="sans-serif" font-size="14" lengthAdjust="spacing" textLength="131" x="317" y="776.6133">ProductServiceImpl</text><rect fill="#E2E2F0" height="30.4883" rx="2.5" ry="2.5" style="stroke:#181818;stroke-width:0.5;" width="170" x="465" y="50"/><text fill="#000000" font-family="sans-serif" font-size="14" lengthAdjust="spacing" textLength="156" x="472" y="70.5352">ProductRepositoryImpl</text><rect fill="#E2E2F0" height="30.4883" rx="2.5" ry="2.5" style="stroke:#181818;stroke-width:0.5;" width="170" x="465" y="756.0781"/><text fill="#000000" font-family="sans-serif" font-size="14" lengthAdjust="spacing" textLength="156" x="472" y="776.6133">ProductRepositoryImpl</text><rect fill="#E2E2F0" height="30.4883" rx="2.5" ry="2.5" style="stroke:#181818;stroke-width:0.5;" width="193" x="645" y="50"/><text fill="#000000" font-family="sans-serif" font-size="14" lengthAdjust="spacing" textLength="179" x="652" y="70.5352">ProductServiceMongoImpl</text><rect fill="#E2E2F0" height="30.4883" rx="2.5" ry="2.5" style="stroke:#181818;stroke-width:0.5;" width="193" x="645" y="756.0781"/><text fill="#000000" font-family="sans-serif" font-size="14" lengthAdjust="spacing" textLength="179" x="652" y="776.6133">ProductServiceMongoImpl</text><rect fill="#E2E2F0" height="30.4883" rx="2.5" ry="2.5" style="stroke:#181818;stroke-width:0.5;" width="188" x="848" y="50"/><text fill="#000000" font-family="sans-serif" font-size="14" lengthAdjust="spacing" textLength="174" x="855" y="70.5352">ProductRepositoryMongo</text><rect fill="#E2E2F0" height="30.4883" rx="2.5" ry="2.5" style="stroke:#181818;stroke-width:0.5;" width="188" x="848" y="756.0781"/><text fill="#000000" font-family="sans-serif" font-size="14" lengthAdjust="spacing" textLength="174" x="855" y="776.6133">ProductRepositoryMongo</text><rect fill="#E2E2F0" height="30.4883" rx="2.5" ry="2.5" style="stroke:#181818;stroke-width:0.5;" width="182" x="1046" y="50"/><text fill="#000000" font-family="sans-serif" font-size="14" lengthAdjust="spacing" textLength="168" x="1053" y="70.5352">ProductServiceRedisImpl</text><rect fill="#E2E2F0" height="30.4883" rx="2.5" ry="2.5" style="stroke:#181818;stroke-width:0.5;" width="182" x="1046" y="756.0781"/><text fill="#000000" font-family="sans-serif" font-size="14" lengthAdjust="spacing" textLength="168" x="1053" y="776.6133">ProductServiceRedisImpl</text><rect fill="#E2E2F0" height="30.4883" rx="2.5" ry="2.5" style="stroke:#181818;stroke-width:0.5;" width="177" x="1238" y="50"/><text fill="#000000" font-family="sans-serif" font-size="14" lengthAdjust="spacing" textLength="163" x="1245" y="70.5352">ProductRepositoryRedis</text><rect fill="#E2E2F0" height="30.4883" rx="2.5" ry="2.5" style="stroke:#181818;stroke-width:0.5;" width="177" x="1238" y="756.0781"/><text fill="#000000" font-family="sans-serif" font-size="14" lengthAdjust="spacing" textLength="163" x="1245" y="776.6133">ProductRepositoryRedis</text><rect fill="#E2E2F0" height="30.4883" rx="2.5" ry="2.5" style="stroke:#181818;stroke-width:0.5;" width="185" x="1425" y="50"/><text fill="#000000" font-family="sans-serif" font-size="14" lengthAdjust="spacing" textLength="171" x="1432" y="70.5352">ProductServiceNeo4JImpl</text><rect fill="#E2E2F0" height="30.4883" rx="2.5" ry="2.5" style="stroke:#181818;stroke-width:0.5;" width="185" x="1425" y="756.0781"/><text fill="#000000" font-family="sans-serif" font-size="14" lengthAdjust="spacing" textLength="171" x="1432" y="776.6133">ProductServiceNeo4JImpl</text><rect fill="#E2E2F0" height="30.4883" rx="2.5" ry="2.5" style="stroke:#181818;stroke-width:0.5;" width="177" x="1620" y="50"/><text fill="#000000" font-family="sans-serif" font-size="14" lengthAdjust="spacing" textLength="163" x="1627" y="70.5352">ProductRepositoryRedis</text><rect fill="#E2E2F0" height="30.4883" rx="2.5" ry="2.5" style="stroke:#181818;stroke-width:0.5;" width="177" x="1620" y="756.0781"/><text fill="#000000" font-family="sans-serif" font-size="14" lengthAdjust="spacing" textLength="163" x="1627" y="776.6133">ProductRepositoryRedis</text><text fill="#000000" font-family="sans-serif" font-size="14" lengthAdjust="spacing" textLength="74" x="1807" y="78.5352">BaseDados</text><path d="M1829,29 C1829,19 1847,19 1847,19 C1847,19 1865,19 1865,29 L1865,55 C1865,65 1847,65 1847,65 C1847,65 1829,65 1829,55 L1829,29 " fill="#E2E2F0" style="stroke:#181818;stroke-width:1.5;"/><path d="M1829,29 C1829,39 1847,39 1847,39 C1847,39 1865,39 1865,29 " fill="none" style="stroke:#181818;stroke-width:1.5;"/><text fill="#000000" font-family="sans-serif" font-size="14" lengthAdjust="spacing" textLength="74" x="1807" y="769.6133">BaseDados</text><path d="M1829,782.5664 C1829,772.5664 1847,772.5664 1847,772.5664 C1847,772.5664 1865,772.5664 1865,782.5664 L1865,808.5664 C1865,818.5664 1847,818.5664 1847,818.5664 C1847,818.5664 1829,818.5664 1829,808.5664 L1829,782.5664 " fill="#E2E2F0" style="stroke:#181818;stroke-width:1.5;"/><path d="M1829,782.5664 C1829,792.5664 1847,792.5664 1847,792.5664 C1847,792.5664 1865,792.5664 1865,782.5664 " fill="none" style="stroke:#181818;stroke-width:1.5;"/><rect fill="#FFFFFF" height="626.2793" style="stroke:#181818;stroke-width:1.0;" width="10" x="226.5" y="112.7988"/><rect fill="#FFFFFF" height="88.6211" style="stroke:#181818;stroke-width:1.0;" width="10" x="377.5" y="166.4199"/><rect fill="#FFFFFF" height="59.3105" style="stroke:#181818;stroke-width:1.0;" width="10" x="545" y="195.7305"/><rect fill="#FFFFFF" height="88.6211" style="stroke:#181818;stroke-width:1.0;" width="10" x="736.5" y="315.6621"/><rect fill="#FFFFFF" height="59.3105" style="stroke:#181818;stroke-width:1.0;" width="10" x="937" y="344.9727"/><rect fill="#FFFFFF" height="88.6211" style="stroke:#181818;stroke-width:1.0;" width="10" x="1132" y="464.9043"/><rect fill="#FFFFFF" height="59.3105" style="stroke:#181818;stroke-width:1.0;" width="10" x="1321.5" y="494.2148"/><rect fill="#FFFFFF" height="88.6211" style="stroke:#181818;stroke-width:1.0;" width="10" x="1512.5" y="614.1465"/><rect fill="#FFFFFF" height="59.3105" style="stroke:#181818;stroke-width:1.0;" width="10" x="1703.5" y="643.457"/><rect fill="#FFFFFF" height="30" style="stroke:#181818;stroke-width:1.0;" width="10" x="1842" y="225.041"/><rect fill="#FFFFFF" height="30" style="stroke:#181818;stroke-width:1.0;" width="10" x="1842" y="374.2832"/><rect fill="#FFFFFF" height="30" style="stroke:#181818;stroke-width:1.0;" width="10" x="1842" y="523.5254"/><rect fill="#FFFFFF" height="30" style="stroke:#181818;stroke-width:1.0;" width="10" x="1842" y="672.7676"/><polygon fill="#181818" points="214.5,108.7988,224.5,112.7988,214.5,116.7988,218.5,112.7988" style="stroke:#181818;stroke-width:1.0;"/><line style="stroke:#181818;stroke-width:1.0;" x1="23.5" x2="220.5" y1="112.7988" y2="112.7988"/><text fill="#000000" font-family="sans-serif" font-size="13" font-weight="bold" lengthAdjust="spacing" textLength="9" x="30.5" y="108.0566">1</text><text fill="#000000" font-family="sans-serif" font-size="13" lengthAdjust="spacing" textLength="99" x="43.5" y="108.0566">POST /products</text><path d="M153,127.7988 L215,127.7988 L215,135.1094 L205,145.1094 L153,145.1094 L153,127.7988 " fill="#EEEEEE" style="stroke:#000000;stroke-width:1.5;"/><rect fill="none" height="135.2422" style="stroke:#000000;stroke-width:1.5;" width="1744" x="153" y="127.7988"/><text fill="#000000" font-family="sans-serif" font-size="13" font-weight="bold" lengthAdjust="spacing" textLength="17" x="168" y="141.3672">alt</text><text fill="#000000" font-family="sans-serif" font-size="11" font-weight="bold" lengthAdjust="spacing" textLength="212" x="230" y="140.4336">[product.service=ProductServiceImpl]</text><polygon fill="#181818" points="365.5,162.4199,375.5,166.4199,365.5,170.4199,369.5,166.4199" style="stroke:#181818;stroke-width:1.0;"/><line style="stroke:#181818;stroke-width:1.0;" x1="236.5" x2="371.5" y1="166.4199" y2="166.4199"/><text fill="#000000" font-family="sans-serif" font-size="13" font-weight="bold" lengthAdjust="spacing" textLength="9" x="243.5" y="161.6777">2</text><text fill="#000000" font-family="sans-serif" font-size="13" lengthAdjust="spacing" textLength="95" x="256.5" y="161.6777">create(product)</text><polygon fill="#181818" points="533,191.7305,543,195.7305,533,199.7305,537,195.7305" style="stroke:#181818;stroke-width:1.0;"/><line style="stroke:#181818;stroke-width:1.0;" x1="387.5" x2="539" y1="195.7305" y2="195.7305"/><text fill="#000000" font-family="sans-serif" font-size="13" font-weight="bold" lengthAdjust="spacing" textLength="9" x="394.5" y="190.9883">3</text><text fill="#000000" font-family="sans-serif" font-size="13" lengthAdjust="spacing" textLength="85" x="407.5" y="190.9883">save(product)</text><polygon fill="#181818" points="1830,221.041,1840,225.041,1830,229.041,1834,225.041" style="stroke:#181818;stroke-width:1.0;"/><line style="stroke:#181818;stroke-width:1.0;" x1="555" x2="1836" y1="225.041" y2="225.041"/><text fill="#000000" font-family="sans-serif" font-size="13" font-weight="bold" lengthAdjust="spacing" textLength="9" x="562" y="220.2988">4</text><text fill="#000000" font-family="sans-serif" font-size="13" lengthAdjust="spacing" textLength="85" x="575" y="220.2988">save(product)</text><path d="M153,277.041 L215,277.041 L215,284.3516 L205,294.3516 L153,294.3516 L153,277.041 " fill="#EEEEEE" style="stroke:#000000;stroke-width:1.5;"/><rect fill="none" height="135.2422" style="stroke:#000000;stroke-width:1.5;" width="1744" x="153" y="277.041"/><text fill="#000000" font-family="sans-serif" font-size="13" font-weight="bold" lengthAdjust="spacing" textLength="17" x="168" y="290.6094">alt</text><text fill="#000000" font-family="sans-serif" font-size="11" font-weight="bold" lengthAdjust="spacing" textLength="250" x="230" y="289.6758">[product.service=ProductServiceMongoImpl]</text><polygon fill="#181818" points="724.5,311.6621,734.5,315.6621,724.5,319.6621,728.5,315.6621" style="stroke:#181818;stroke-width:1.0;"/><line style="stroke:#181818;stroke-width:1.0;" x1="236.5" x2="730.5" y1="315.6621" y2="315.6621"/><text fill="#000000" font-family="sans-serif" font-size="13" font-weight="bold" lengthAdjust="spacing" textLength="9" x="243.5" y="310.9199">5</text><text fill="#000000" font-family="sans-serif" font-size="13" lengthAdjust="spacing" textLength="95" x="256.5" y="310.9199">create(product)</text><polygon fill="#181818" points="925,340.9727,935,344.9727,925,348.9727,929,344.9727" style="stroke:#181818;stroke-width:1.0;"/><line style="stroke:#181818;stroke-width:1.0;" x1="746.5" x2="931" y1="344.9727" y2="344.9727"/><text fill="#000000" font-family="sans-serif" font-size="13" font-weight="bold" lengthAdjust="spacing" textLength="9" x="753.5" y="340.2305">6</text><text fill="#000000" font-family="sans-serif" font-size="13" lengthAdjust="spacing" textLength="85" x="766.5" y="340.2305">save(product)</text><polygon fill="#181818" points="1830,370.2832,1840,374.2832,1830,378.2832,1834,374.2832" style="stroke:#181818;stroke-width:1.0;"/><line style="stroke:#181818;stroke-width:1.0;" x1="947" x2="1836" y1="374.2832" y2="374.2832"/><text fill="#000000" font-family="sans-serif" font-size="13" font-weight="bold" lengthAdjust="spacing" textLength="9" x="954" y="369.541">7</text><text fill="#000000" font-family="sans-serif" font-size="13" lengthAdjust="spacing" textLength="85" x="967" y="369.541">save(product)</text><path d="M153,426.2832 L215,426.2832 L215,433.5938 L205,443.5938 L153,443.5938 L153,426.2832 " fill="#EEEEEE" style="stroke:#000000;stroke-width:1.5;"/><rect fill="none" height="135.2422" style="stroke:#000000;stroke-width:1.5;" width="1744" x="153" y="426.2832"/><text fill="#000000" font-family="sans-serif" font-size="13" font-weight="bold" lengthAdjust="spacing" textLength="17" x="168" y="439.8516">alt</text><text fill="#000000" font-family="sans-serif" font-size="11" font-weight="bold" lengthAdjust="spacing" textLength="243" x="230" y="438.918">[product.service=ProductServiceRedisImpl]</text><polygon fill="#181818" points="1120,460.9043,1130,464.9043,1120,468.9043,1124,464.9043" style="stroke:#181818;stroke-width:1.0;"/><line style="stroke:#181818;stroke-width:1.0;" x1="236.5" x2="1126" y1="464.9043" y2="464.9043"/><text fill="#000000" font-family="sans-serif" font-size="13" font-weight="bold" lengthAdjust="spacing" textLength="9" x="243.5" y="460.1621">8</text><text fill="#000000" font-family="sans-serif" font-size="13" lengthAdjust="spacing" textLength="95" x="256.5" y="460.1621">create(product)</text><polygon fill="#181818" points="1309.5,490.2148,1319.5,494.2148,1309.5,498.2148,1313.5,494.2148" style="stroke:#181818;stroke-width:1.0;"/><line style="stroke:#181818;stroke-width:1.0;" x1="1142" x2="1315.5" y1="494.2148" y2="494.2148"/><text fill="#000000" font-family="sans-serif" font-size="13" font-weight="bold" lengthAdjust="spacing" textLength="9" x="1149" y="489.4727">9</text><text fill="#000000" font-family="sans-serif" font-size="13" lengthAdjust="spacing" textLength="85" x="1162" y="489.4727">save(product)</text><polygon fill="#181818" points="1830,519.5254,1840,523.5254,1830,527.5254,1834,523.5254" style="stroke:#181818;stroke-width:1.0;"/><line style="stroke:#181818;stroke-width:1.0;" x1="1331.5" x2="1836" y1="523.5254" y2="523.5254"/><text fill="#000000" font-family="sans-serif" font-size="13" font-weight="bold" lengthAdjust="spacing" textLength="18" x="1338.5" y="518.7832">10</text><text fill="#000000" font-family="sans-serif" font-size="13" lengthAdjust="spacing" textLength="85" x="1360.5" y="518.7832">save(product)</text><path d="M153,575.5254 L215,575.5254 L215,582.8359 L205,592.8359 L153,592.8359 L153,575.5254 " fill="#EEEEEE" style="stroke:#000000;stroke-width:1.5;"/><rect fill="none" height="135.2422" style="stroke:#000000;stroke-width:1.5;" width="1744" x="153" y="575.5254"/><text fill="#000000" font-family="sans-serif" font-size="13" font-weight="bold" lengthAdjust="spacing" textLength="17" x="168" y="589.0938">alt</text><text fill="#000000" font-family="sans-serif" font-size="11" font-weight="bold" lengthAdjust="spacing" textLength="245" x="230" y="588.1602">[product.service=ProductServiceNeo4JImpl]</text><polygon fill="#181818" points="1500.5,610.1465,1510.5,614.1465,1500.5,618.1465,1504.5,614.1465" style="stroke:#181818;stroke-width:1.0;"/><line style="stroke:#181818;stroke-width:1.0;" x1="236.5" x2="1506.5" y1="614.1465" y2="614.1465"/><text fill="#000000" font-family="sans-serif" font-size="13" font-weight="bold" lengthAdjust="spacing" textLength="18" x="243.5" y="609.4043">11</text><text fill="#000000" font-family="sans-serif" font-size="13" lengthAdjust="spacing" textLength="95" x="265.5" y="609.4043">create(product)</text><polygon fill="#181818" points="1691.5,639.457,1701.5,643.457,1691.5,647.457,1695.5,643.457" style="stroke:#181818;stroke-width:1.0;"/><line style="stroke:#181818;stroke-width:1.0;" x1="1522.5" x2="1697.5" y1="643.457" y2="643.457"/><text fill="#000000" font-family="sans-serif" font-size="13" font-weight="bold" lengthAdjust="spacing" textLength="18" x="1529.5" y="638.7148">12</text><text fill="#000000" font-family="sans-serif" font-size="13" lengthAdjust="spacing" textLength="85" x="1551.5" y="638.7148">save(product)</text><polygon fill="#181818" points="1830,668.7676,1840,672.7676,1830,676.7676,1834,672.7676" style="stroke:#181818;stroke-width:1.0;"/><line style="stroke:#181818;stroke-width:1.0;" x1="1713.5" x2="1836" y1="672.7676" y2="672.7676"/><text fill="#000000" font-family="sans-serif" font-size="13" font-weight="bold" lengthAdjust="spacing" textLength="18" x="1720.5" y="668.0254">13</text><text fill="#000000" font-family="sans-serif" font-size="13" lengthAdjust="spacing" textLength="85" x="1742.5" y="668.0254">save(product)</text><polygon fill="#181818" points="34.5,735.0781,24.5,739.0781,34.5,743.0781,30.5,739.0781" style="stroke:#181818;stroke-width:1.0;"/><line style="stroke:#181818;stroke-width:1.0;stroke-dasharray:2.0,2.0;" x1="28.5" x2="230.5" y1="739.0781" y2="739.0781"/><text fill="#000000" font-family="sans-serif" font-size="13" font-weight="bold" lengthAdjust="spacing" textLength="18" x="40.5" y="734.3359">14</text><text fill="#000000" font-family="sans-serif" font-size="13" lengthAdjust="spacing" textLength="157" x="62.5" y="734.3359">Retorna o produto criado</text><!--SRC=[fLJ1Ri8m3BtdAtBRTe1UE5NQ3b0qWGP5BUmUMejLQfikIP7sztEI9Z0DWX07AYSyFzlFTfw-bEfa74LTpLhLD_Muu4qauRk7je1HMR63O0qXh5UyxPiz2BGBnGNTIH2KIRhBCz8neQgYwf22RWGl-qBDUAi4hsiBccspZqke7CInAc3HTBM6vTdd9LG67PSL1lrnm6o-IGa9CAvuU-0ElKhNx-bDRkFYo8rBC486PILF-IIB_6O4u-8Y69TWX3NmoT95MC_JoVA-2CO58vHCiJsJGAVuILZ93IAP4eAzewCtqvsORj9yIwFEKahTvUh85DZUiLhHuQ-njEcz_kyXqLZDY8d6j120_i-3syk9KPU1FyJfD6CgsV4Ip3HPVpHZChsAmqfAk78o76Td7HhQac8zgCpjglmS-TBSC0Ngy_FcZA5ISmoMQyVEMmyMRjdEBdrYzqZW1zrBuAOz885V26SC4fXZK0Ax5zvwK0BBzkToIEmU2VmcUWdSEWOay1lhZ442SmnAO1VNMmzAODdEBdrY9mc6kZ2GVX9YcW6-9YsZt0gZE9PPuSjnJcFUXLy0]--></g></svg>